<?xml version="1.0" standalone="no"?>
<!DOCTYPE svg PUBLIC "-//W3C//DTD SVG 20010904//EN"
 "http://www.w3.org/TR/2001/REC-SVG-20010904/DTD/svg10.dtd">
<svg version="1.0" xmlns="http://www.w3.org/2000/svg"
 width="3630.000000pt" height="1900.000000pt" viewBox="0 0 3630.000000 1900.000000"
 preserveAspectRatio="xMidYMid meet">

<g transform="translate(0.000000,1900.000000) scale(0.100000,-0.100000)"
fill="#000000" stroke="none">
<path d="M7123 18333 c-6 -16 6 -84 18 -99 5 -6 15 -37 22 -70 13 -54 12 -63
-5 -104 -11 -25 -26 -52 -34 -61 -13 -15 -12 -21 6 -51 16 -27 22 -60 26 -144
l6 -109 -59 -90 c-73 -111 -79 -121 -87 -167 -4 -24 -3 -37 5 -40 8 -3 10 -19
5 -52 -5 -34 -11 -46 -21 -42 -8 3 -17 -3 -20 -14 -4 -13 -19 -22 -43 -26 -53
-10 -81 -26 -132 -78 -43 -44 -48 -46 -101 -46 -72 0 -101 22 -129 96 -21 59
-20 68 17 97 29 24 29 35 -2 49 -14 6 -25 16 -25 22 0 9 33 55 78 111 4 6 19
26 32 46 14 20 31 34 38 32 6 -3 12 0 12 6 0 17 61 81 94 98 37 19 46 30 46
60 0 16 -11 28 -37 42 -21 10 -48 33 -61 50 -12 17 -30 31 -40 31 -9 1 -35 9
-57 20 -22 11 -49 19 -61 20 -25 0 -178 51 -224 75 -19 10 -75 51 -124 92 -99
83 -130 91 -154 40 -12 -24 -11 -46 7 -156 23 -144 27 -294 10 -470 -12 -133
-11 -137 62 -196 69 -57 65 -102 -9 -103 -35 -1 -62 -16 -62 -36 0 -7 16 -27
35 -46 41 -40 42 -46 13 -78 -18 -18 -24 -40 -30 -100 -3 -42 -9 -86 -13 -98
-6 -18 0 -24 37 -40 24 -10 50 -19 58 -19 34 -4 61 -28 85 -75 23 -46 28 -50
60 -50 27 0 41 -8 62 -31 16 -18 37 -41 48 -51 19 -18 20 -30 17 -166 l-3
-147 28 -26 c15 -14 53 -42 83 -62 55 -36 56 -36 122 -27 36 5 78 14 92 20 39
15 107 12 140 -5 15 -8 35 -15 42 -15 39 0 130 -43 159 -75 30 -32 38 -35 86
-35 30 1 83 7 118 15 64 13 66 13 150 -18 83 -31 91 -32 236 -31 83 1 175 6
205 13 30 6 120 12 200 13 115 2 151 -1 175 -14 17 -8 54 -18 84 -21 29 -4 59
-11 65 -16 7 -6 39 -13 72 -17 32 -4 73 -12 90 -19 17 -7 51 -16 75 -20 24 -3
62 -12 84 -20 22 -7 63 -17 90 -23 97 -20 150 -33 203 -49 28 -9 55 -13 59
-10 9 10 5 112 -8 174 -9 44 -8 57 5 75 9 12 16 40 16 61 0 20 6 53 14 72 8
19 18 56 22 82 4 26 11 59 17 73 5 14 15 57 23 95 7 39 17 89 23 113 24 95 33
129 42 172 6 25 15 61 20 80 6 19 17 64 24 100 32 151 38 178 56 239 11 35 19
77 19 93 0 16 5 38 10 48 9 18 17 49 51 210 6 30 17 76 25 102 25 83 15 119
-36 132 -14 4 -113 29 -220 56 -107 28 -217 57 -245 65 -27 9 -104 28 -170 45
-114 27 -166 41 -350 90 -44 12 -105 28 -135 35 -30 7 -127 32 -215 55 -88 22
-178 45 -200 49 -149 31 -522 134 -531 146 -6 8 -24 15 -39 15 -15 0 -41 7
-58 15 -48 22 -178 35 -184 18z"/>
<path d="M9594 17692 c-6 -4 -14 -25 -18 -47 -4 -21 -14 -52 -22 -67 -8 -15
-14 -45 -14 -68 0 -23 -7 -54 -15 -70 -8 -15 -18 -55 -21 -87 -4 -32 -12 -69
-19 -83 -7 -14 -15 -48 -18 -77 -3 -29 -13 -65 -21 -82 -9 -16 -16 -49 -16
-73 0 -24 -7 -56 -15 -72 -8 -16 -18 -54 -21 -85 -4 -31 -12 -65 -19 -76 -6
-11 -14 -45 -18 -76 -3 -31 -12 -71 -21 -87 -9 -17 -16 -49 -16 -70 0 -22 -9
-59 -20 -83 -11 -24 -20 -65 -20 -90 0 -25 -7 -54 -15 -65 -8 -10 -15 -36 -15
-57 0 -21 -9 -63 -21 -95 -18 -49 -20 -80 -20 -229 l1 -172 30 -53 c16 -29 35
-64 40 -78 6 -14 24 -52 40 -85 17 -33 30 -66 30 -73 0 -21 -47 -98 -156 -257
-24 -34 -74 -110 -89 -134 -6 -9 -19 -29 -30 -46 -10 -16 -65 -75 -121 -130
-98 -96 -134 -148 -134 -196 0 -11 25 -46 55 -79 33 -36 55 -69 55 -83 0 -12
-15 -52 -34 -87 -61 -115 -86 -172 -86 -194 0 -18 -10 -67 -52 -246 -6 -25
-17 -76 -24 -115 -7 -38 -17 -88 -23 -110 -5 -22 -19 -85 -31 -140 -12 -55
-26 -120 -32 -145 -6 -25 -16 -76 -23 -115 -7 -38 -17 -83 -23 -100 -6 -16
-13 -53 -16 -82 l-6 -51 66 -21 c37 -12 82 -21 99 -21 18 0 61 -9 95 -20 34
-11 78 -20 96 -20 18 0 53 -6 76 -14 24 -8 70 -19 103 -25 57 -9 88 -16 203
-42 26 -6 74 -15 107 -20 33 -6 83 -17 110 -24 28 -8 74 -17 104 -21 30 -3 68
-12 85 -19 17 -7 58 -15 91 -19 33 -4 78 -13 100 -21 22 -8 59 -14 82 -15 23
0 54 -5 70 -11 15 -6 69 -17 118 -25 50 -8 113 -18 140 -23 56 -11 147 -27
245 -42 36 -5 85 -15 110 -20 25 -6 83 -16 130 -24 47 -8 111 -19 143 -24 31
-6 83 -16 115 -22 31 -6 89 -15 127 -20 39 -6 96 -17 127 -25 100 -25 104 -23
111 44 3 31 13 77 22 101 8 24 15 71 15 105 1 33 7 79 16 101 8 22 17 76 20
120 3 44 11 98 19 120 7 22 16 76 19 120 3 44 12 100 21 124 8 24 15 71 15
105 1 33 7 79 16 101 8 22 17 76 20 120 3 44 11 98 19 120 7 22 16 77 19 122
3 45 12 98 21 119 20 49 19 81 -5 111 -11 14 -20 31 -20 37 -1 6 -12 24 -25
40 l-24 30 -20 -25 c-11 -13 -23 -32 -26 -41 -8 -23 -97 -25 -152 -4 -21 8
-62 17 -92 21 -30 3 -63 13 -75 21 -34 23 -68 16 -105 -21 -33 -33 -36 -34
-58 -20 -12 8 -30 15 -39 15 -9 0 -32 7 -51 16 l-34 17 -39 -38 c-43 -42 -67
-41 -108 2 -40 43 -55 85 -61 174 -5 65 -11 92 -25 108 -11 12 -24 21 -30 21
-6 0 -29 15 -51 34 l-40 34 13 46 c16 62 15 101 -3 116 -8 7 -15 20 -15 29 0
9 -9 30 -20 46 -11 17 -20 37 -20 46 0 9 -7 22 -15 29 -11 9 -15 34 -15 101 0
106 -10 139 -44 139 -13 0 -29 -7 -36 -15 -7 -8 -16 -15 -21 -15 -5 0 -29 -16
-55 -35 -25 -19 -53 -35 -62 -35 -9 0 -41 23 -70 51 l-53 50 7 87 c6 89 18
112 55 112 9 0 24 12 34 26 16 25 16 30 1 76 -24 76 -21 99 19 138 19 19 35
41 35 50 0 8 9 32 20 53 11 20 20 47 20 60 0 13 7 32 15 43 30 40 8 76 -55 88
-40 7 -110 51 -110 68 0 6 -6 19 -13 27 -7 9 -23 43 -36 76 -12 33 -31 78 -41
100 -44 95 -60 132 -60 144 0 7 -41 54 -91 104 l-92 92 6 69 c3 38 11 74 17
80 14 14 12 48 -5 70 -8 11 -15 27 -15 37 0 9 -7 22 -15 29 -8 7 -15 20 -15
30 0 9 -9 29 -20 43 -24 30 -26 92 -5 143 8 20 19 68 24 108 5 40 14 82 20 94
6 11 11 39 11 62 0 22 9 66 20 97 11 32 20 83 20 114 0 56 -1 58 -33 68 -18 6
-69 18 -112 27 -44 9 -98 20 -120 25 -50 10 -57 10 -71 1z"/>
<path d="M10011 17589 c-11 -13 -23 -42 -26 -68 -3 -25 -10 -66 -16 -91 -6
-25 -17 -76 -24 -115 -7 -38 -17 -90 -23 -115 -29 -118 -35 -181 -22 -223 8
-23 19 -49 26 -57 7 -8 15 -27 19 -42 4 -15 13 -32 21 -39 19 -15 18 -90 -1
-136 -28 -66 -22 -81 70 -170 47 -45 85 -88 85 -94 0 -12 40 -104 65 -151 8
-14 15 -32 15 -38 0 -12 19 -55 59 -138 18 -36 59 -65 107 -75 17 -3 48 -16
69 -28 35 -21 37 -24 31 -62 -4 -22 -15 -59 -26 -83 -11 -23 -20 -49 -20 -56
-1 -7 -9 -31 -20 -53 -11 -22 -19 -50 -20 -61 0 -12 -9 -33 -21 -47 -18 -24
-19 -35 -13 -110 l7 -84 -47 -32 c-54 -38 -66 -57 -66 -109 0 -41 31 -82 63
-82 14 0 62 28 139 81 42 29 69 24 107 -22 33 -40 34 -44 32 -120 -2 -80 19
-178 46 -210 7 -8 13 -21 13 -27 0 -6 9 -27 21 -46 15 -26 20 -49 18 -93 -3
-75 5 -98 40 -113 55 -22 68 -48 86 -164 20 -129 21 -133 46 -141 13 -5 31 3
55 24 37 33 63 34 109 6 44 -27 75 -27 107 0 28 24 36 26 82 19 28 -3 68 -13
90 -20 21 -8 51 -14 66 -14 15 0 51 -7 79 -17 51 -16 52 -16 75 6 14 13 30 35
36 51 6 15 23 33 37 41 22 12 26 11 44 -11 10 -14 26 -40 34 -57 9 -19 24 -33
33 -33 15 0 20 16 29 93 6 50 18 109 27 131 16 37 17 38 54 32 20 -4 91 -11
157 -17 66 -5 137 -14 157 -20 20 -5 90 -14 155 -19 65 -5 135 -14 156 -19 21
-5 82 -12 135 -16 53 -4 129 -13 169 -21 40 -8 94 -14 121 -14 27 0 101 -9
163 -20 63 -11 140 -20 171 -20 31 0 88 -7 126 -15 38 -8 111 -17 163 -20 52
-4 126 -13 164 -20 39 -8 110 -17 158 -20 48 -3 122 -13 163 -21 42 -7 101
-14 132 -14 32 0 89 -7 127 -15 39 -8 111 -17 160 -20 50 -3 128 -12 175 -20
47 -8 130 -19 185 -25 55 -6 130 -15 168 -21 53 -9 137 -6 137 4 0 1 9 63 20
137 12 74 25 221 30 325 5 105 13 206 18 225 6 19 13 89 17 155 3 66 13 165
21 220 7 55 14 138 14 185 0 47 9 162 20 255 11 94 20 211 20 260 0 50 5 108
10 130 5 22 14 117 20 210 5 94 17 227 26 296 9 69 14 142 10 162 -6 34 -9 36
-54 42 -141 16 -187 25 -190 35 -3 8 -9 7 -21 -3 -14 -13 -33 -12 -151 5 -74
11 -139 26 -145 33 -6 7 -90 24 -195 39 -102 15 -243 36 -315 47 -232 36 -817
121 -925 135 -58 7 -141 20 -185 28 -44 9 -154 25 -245 36 -91 12 -176 25
-188 31 -13 5 -82 16 -152 24 -71 9 -164 21 -207 29 -43 8 -83 10 -89 5 -6 -5
-35 -4 -65 1 -30 5 -148 23 -264 39 -257 36 -490 71 -695 105 -85 14 -175 28
-200 31 -95 11 -411 56 -533 75 -216 33 -398 60 -413 60 -7 0 -22 -10 -33 -21z"/>
<path d="M6774 17492 c-40 -22 -139 -111 -131 -118 3 -4 32 -2 64 4 47 8 62 8
81 -4 45 -29 82 7 82 80 0 56 -36 71 -96 38z"/>
<path d="M31469 17372 c-20 -15 -61 -46 -90 -69 -34 -26 -70 -44 -95 -48 -36
-6 -44 -3 -89 34 -55 45 -89 52 -105 20 -13 -24 -114 -314 -142 -409 -14 -48
-19 -94 -18 -177 0 -76 -4 -124 -14 -146 -28 -68 -29 -114 -5 -206 28 -109 28
-112 -85 -353 -17 -37 -30 -87 -37 -145 -11 -97 -27 -130 -70 -146 -16 -6 -31
-17 -34 -24 -6 -18 13 -112 29 -143 7 -14 17 -43 21 -65 4 -22 10 -44 15 -50
7 -9 20 -52 51 -165 6 -25 17 -61 24 -80 22 -59 46 -133 55 -170 5 -19 15 -53
24 -75 8 -22 15 -48 16 -58 0 -10 6 -28 14 -40 8 -12 17 -39 20 -59 4 -20 13
-50 21 -65 8 -15 15 -38 15 -50 0 -55 82 -201 127 -227 22 -12 32 3 47 75 7
35 32 105 54 154 30 66 42 110 48 163 l7 73 60 41 59 40 -6 55 c-6 51 -4 56
24 84 35 36 49 31 88 -29 34 -50 43 -46 86 34 25 47 36 60 58 62 15 2 37 15
48 29 18 23 20 40 20 150 0 122 1 125 27 154 21 22 37 29 64 29 39 0 69 -22
48 -36 -15 -9 16 -34 43 -34 30 0 71 47 64 74 -6 25 23 60 53 62 52 3 54 4 43
17 -9 10 -2 18 33 35 24 12 47 17 50 12 8 -13 37 0 32 15 -3 7 14 19 44 29 61
22 91 46 130 102 19 27 51 57 85 75 56 32 84 62 84 90 0 21 -62 99 -92 115
-12 7 -43 16 -68 20 -25 4 -53 11 -62 15 -25 13 -70 84 -103 162 -15 37 -29
67 -30 67 -28 0 -125 26 -137 37 -22 20 -70 160 -148 433 -11 41 -38 131 -60
200 -22 69 -47 151 -56 183 -21 68 -27 74 -121 121 -85 43 -116 44 -164 8z"/>
<path d="M19351 16892 c-5 -10 -12 -56 -14 -102 -3 -66 -7 -85 -22 -96 -22
-17 -35 -18 -35 -4 0 6 -12 10 -26 10 -17 0 -24 -4 -21 -13 4 -10 -76 -12
-389 -12 -270 0 -396 -3 -404 -11 -8 -8 -7 -19 1 -40 9 -20 12 -96 10 -256 -2
-210 -1 -229 18 -272 12 -24 21 -56 21 -69 0 -13 7 -32 15 -43 8 -10 15 -30
15 -44 0 -14 9 -42 20 -63 15 -27 20 -56 20 -109 0 -40 5 -118 11 -173 5 -55
14 -183 18 -285 7 -133 13 -193 24 -215 51 -98 55 -115 67 -246 7 -74 14 -137
17 -142 6 -9 -26 -96 -43 -117 -6 -8 -26 -40 -43 -71 l-31 -56 39 -59 c21 -32
57 -79 80 -104 l40 -45 1 -581 c0 -530 1 -583 17 -595 13 -12 93 -14 442 -11
234 1 568 7 741 13 173 6 506 14 740 19 276 5 438 12 462 19 45 14 52 34 46
121 -4 52 -9 65 -38 95 -38 39 -196 149 -229 160 -11 3 -23 15 -26 26 -19 58
-89 134 -147 159 -13 6 -36 19 -53 30 -16 11 -43 27 -60 36 -16 9 -32 20 -35
23 -3 4 -16 12 -30 19 -14 6 -52 27 -85 46 l-60 34 0 188 c0 153 4 198 18 237
9 26 17 54 17 61 0 8 -20 40 -45 72 -25 31 -45 67 -45 79 0 12 11 43 25 69 14
26 25 53 25 61 0 16 96 115 111 115 6 0 31 16 55 36 l44 37 -5 66 c-3 36 -10
99 -15 139 -6 40 -10 98 -10 127 0 50 2 56 29 70 37 19 75 66 61 75 -12 7 22
43 37 38 18 -6 73 50 67 67 -5 12 -2 16 12 13 13 -2 18 2 16 13 -3 19 334 353
403 399 109 72 245 151 257 148 39 -7 172 96 166 129 -3 16 -62 63 -79 63 -5
0 -9 -6 -9 -12 0 -10 -31 -14 -116 -16 -113 -3 -116 -3 -170 28 -64 36 -73 35
-190 -22 -142 -68 -160 -65 -288 51 -68 62 -83 71 -116 71 -28 0 -43 -6 -57
-23 -10 -13 -28 -29 -39 -35 -25 -13 -35 -4 -76 68 -42 72 -107 122 -195 150
-37 11 -53 10 -172 -19 -171 -40 -209 -40 -256 0 -35 31 -85 51 -180 70 -123
26 -184 50 -215 85 -16 19 -30 40 -30 47 -5 109 -41 266 -67 284 -23 17 -31
16 -42 -5z"/>
<path d="M15369 16842 c-23 -3 -27 -9 -33 -49 -3 -25 -6 -85 -6 -133 0 -48 -6
-123 -14 -166 -8 -44 -17 -151 -20 -239 -3 -88 -11 -176 -17 -195 -6 -19 -14
-123 -19 -230 -5 -107 -13 -210 -19 -228 -5 -18 -13 -110 -16 -205 -4 -95 -13
-206 -21 -248 -9 -45 -14 -117 -12 -175 l3 -99 75 -7 c213 -20 382 -30 640
-38 157 -6 346 -15 420 -20 74 -6 281 -15 460 -20 179 -5 370 -14 425 -19 55
-6 242 -16 415 -22 173 -6 353 -14 400 -18 117 -11 552 -13 567 -3 7 5 15 46
19 103 5 78 4 102 -9 125 -8 16 -25 52 -37 79 -12 28 -26 59 -32 69 -12 23
-15 70 -26 426 -6 230 -11 280 -25 307 -9 18 -17 42 -17 53 0 12 -6 34 -14 48
-15 28 -44 110 -53 152 -3 14 -12 33 -21 43 -12 14 -13 24 -4 55 6 20 14 105
17 187 5 142 4 154 -18 215 -17 44 -32 69 -48 77 -25 12 -127 19 -409 28 -91
3 -190 8 -220 10 -67 6 -542 31 -770 41 -116 5 -168 11 -175 20 -7 9 -82 16
-280 24 -148 6 -340 15 -424 20 -115 7 -157 7 -162 -2 -10 -16 -307 -3 -328
15 -9 7 -47 14 -86 16 -38 2 -72 4 -75 5 -3 1 -17 0 -31 -2z"/>
<path d="M6060 16711 c-20 -6 -30 -23 -58 -101 -18 -52 -40 -124 -48 -159 -7
-36 -18 -67 -23 -71 -5 -3 -12 -24 -15 -48 -3 -23 -16 -64 -30 -90 -31 -58
-57 -122 -50 -122 3 0 -4 -15 -15 -34 -12 -18 -21 -39 -21 -46 0 -14 -101
-273 -127 -327 -8 -17 -12 -37 -8 -43 4 -7 -4 -42 -18 -78 -99 -260 -130 -332
-143 -332 -8 0 -19 -10 -25 -22 -27 -59 -165 -278 -182 -289 -5 -3 -7 -15 -6
-25 2 -11 -13 -44 -32 -74 -125 -191 -114 -164 -112 -269 3 -80 -1 -107 -28
-192 -20 -64 -30 -115 -28 -145 2 -29 -2 -48 -10 -53 -9 -6 -10 -11 -2 -15 6
-4 15 -24 21 -44 11 -43 36 -57 135 -77 33 -7 74 -17 90 -23 80 -27 144 -46
180 -53 37 -7 100 -26 170 -50 17 -6 53 -15 81 -20 28 -5 64 -16 80 -24 16 -8
39 -15 52 -15 13 0 33 -5 45 -12 12 -6 47 -17 77 -24 30 -7 69 -17 85 -22 97
-32 144 -46 180 -53 37 -7 100 -26 170 -50 17 -6 54 -15 84 -20 29 -5 63 -16
75 -24 11 -8 33 -15 49 -15 16 0 38 -5 50 -12 12 -6 47 -17 77 -24 30 -7 69
-17 85 -22 127 -42 164 -52 190 -52 17 0 42 -7 57 -14 16 -8 49 -18 75 -22 27
-3 57 -11 68 -17 11 -6 49 -16 85 -23 85 -16 153 -32 215 -49 94 -26 180 -46
235 -55 30 -5 78 -15 105 -24 69 -20 131 -35 190 -47 28 -5 73 -16 100 -24 28
-7 73 -19 100 -25 28 -6 70 -16 95 -21 25 -6 60 -15 79 -21 50 -15 72 11 80
99 4 37 12 77 18 88 6 11 14 49 17 84 4 36 13 76 20 90 7 14 16 53 19 86 3 33
12 74 21 90 9 17 16 52 16 78 0 26 6 60 14 75 7 15 16 56 20 91 4 36 13 76 20
90 7 14 16 54 19 89 3 34 10 69 17 77 6 7 14 40 17 72 3 32 11 65 19 73 7 8
17 26 23 40 6 14 25 49 41 77 17 30 27 60 23 69 -3 9 -28 36 -54 61 -45 42
-49 50 -49 92 0 84 13 106 132 224 62 62 127 132 143 157 17 25 33 47 36 50 3
3 19 29 35 57 16 29 32 53 36 53 4 0 14 15 23 33 8 17 35 60 60 95 68 93 68
99 -5 246 -53 106 -67 127 -89 131 -14 3 -39 10 -56 16 -16 6 -59 16 -94 21
-36 5 -74 16 -85 24 -11 8 -41 14 -66 14 -25 0 -58 7 -74 15 -16 9 -58 20 -93
25 -36 5 -70 13 -76 18 -7 5 -37 12 -68 16 -31 3 -69 13 -85 21 -16 8 -47 15
-69 15 -22 0 -53 8 -70 17 -34 19 -165 21 -250 3 -27 -6 -141 -14 -253 -17
-199 -6 -205 -5 -250 17 -43 22 -56 23 -218 22 l-172 -2 -27 32 c-32 38 -107
78 -147 78 -14 0 -40 8 -56 17 -29 17 -33 17 -79 0 -66 -23 -230 -28 -246 -7
-7 8 -23 21 -37 28 -38 18 -124 82 -133 98 -5 9 -4 54 2 102 23 188 24 180
-21 228 -36 39 -46 44 -84 44 -36 0 -47 5 -61 26 -36 56 -139 94 -203 75z"/>
<path d="M22474 15761 c-62 -45 -104 -127 -74 -146 18 -11 55 13 67 45 6 15
30 42 53 59 24 17 50 40 57 51 13 19 12 20 -25 20 -27 0 -51 -9 -78 -29z"/>
<path d="M30540 15670 c-18 -18 -21 -30 -25 -100 -1 -14 -5 -61 -9 -105 -7
-88 5 -179 29 -205 8 -9 15 -32 15 -51 0 -29 -11 -45 -70 -106 -38 -39 -74
-82 -79 -95 -4 -12 -5 -65 -1 -117 8 -112 4 -183 -14 -231 -14 -35 -38 -158
-38 -195 -1 -11 4 -72 11 -135 6 -63 11 -158 11 -211 0 -90 2 -97 26 -120 22
-21 34 -24 84 -21 32 1 87 11 122 22 35 11 75 20 89 20 15 0 55 9 89 20 34 11
79 20 99 20 40 1 79 29 98 72 6 14 34 39 62 54 62 35 73 58 61 121 -13 69 -18
81 -69 148 -52 68 -91 146 -91 181 0 13 -9 41 -20 61 -11 21 -20 49 -20 63 0
14 -6 34 -14 45 -7 11 -16 40 -20 64 -4 24 -13 53 -21 64 -8 12 -15 34 -15 49
0 16 -9 45 -20 65 -11 21 -20 52 -20 69 0 17 -7 37 -15 44 -8 7 -15 27 -15 44
0 17 -9 48 -20 69 -11 20 -20 49 -20 65 0 15 -6 37 -14 48 -8 11 -18 38 -22
60 -3 21 -12 50 -19 64 -7 14 -15 41 -19 60 -3 19 -16 54 -27 77 -23 48 -47
55 -79 23z"/>
<path d="M22223 15557 c-34 -23 -62 -49 -63 -58 0 -15 -79 -89 -132 -123 -15
-10 -72 -29 -125 -42 -67 -17 -115 -36 -153 -61 -105 -68 -117 -90 -84 -156
28 -55 54 -77 93 -77 20 0 48 -6 62 -14 14 -7 53 -17 85 -20 32 -4 78 -14 102
-22 23 -8 62 -14 85 -14 23 0 54 -7 69 -14 16 -8 49 -18 75 -22 27 -4 59 -11
73 -17 14 -5 57 -16 95 -23 39 -7 88 -17 110 -23 22 -6 56 -11 76 -11 48 0 70
-19 78 -66 5 -28 12 -40 26 -42 11 -2 27 -10 35 -17 8 -7 27 -15 42 -19 15 -3
35 -17 44 -31 14 -21 14 -31 3 -80 -15 -69 -4 -100 41 -110 17 -4 34 -14 37
-23 7 -19 23 -32 40 -32 13 0 85 126 81 144 -4 17 56 127 84 153 31 29 200 93
247 93 33 0 42 6 77 49 42 54 77 73 181 97 36 8 110 37 164 64 54 28 112 50
129 50 17 0 70 -16 119 -35 48 -19 96 -35 106 -35 11 0 15 -5 12 -14 -6 -15
12 -26 40 -26 11 0 14 6 10 21 -9 35 12 78 41 85 15 3 32 7 38 9 6 2 15 0 20
-5 11 -10 102 6 120 21 18 15 18 43 0 36 -10 -4 -15 7 -18 45 -6 57 -36 104
-64 100 -81 -13 -102 -13 -108 -3 -4 7 -40 11 -91 11 -101 0 -115 10 -115 78
0 26 -6 58 -13 72 -11 21 -20 25 -57 25 -26 0 -44 -4 -43 -11 1 -5 -16 -15
-38 -21 -33 -9 -37 -8 -28 3 9 11 7 14 -9 14 -12 0 -25 -6 -29 -14 -4 -8 -55
-26 -113 -41 -139 -35 -172 -51 -255 -125 -94 -83 -144 -108 -188 -93 -75 27
-151 36 -217 26 -45 -7 -72 -7 -88 0 -13 6 -52 48 -87 93 -72 92 -114 118
-207 129 -42 5 -55 11 -51 21 7 18 -21 18 -36 0 -6 -8 -25 -19 -41 -26 -16 -6
-27 -17 -24 -23 7 -20 -32 -38 -59 -28 -21 8 -26 19 -32 67 -7 57 -21 89 -59
132 -26 30 -41 27 -113 -21z"/>
<path d="M30240 15430 c-142 -36 -229 -58 -340 -85 -231 -57 -230 -57 -230
-119 0 -55 37 -168 75 -226 26 -41 29 -51 25 -110 -11 -160 -2 -215 49 -323
24 -49 31 -75 26 -96 -7 -32 15 -59 66 -86 31 -17 45 -50 54 -130 4 -33 13
-72 21 -87 8 -15 14 -42 14 -60 0 -19 9 -59 20 -91 11 -31 20 -73 20 -92 0
-45 18 -52 73 -31 24 9 56 16 71 16 33 0 166 38 166 47 0 3 -7 11 -16 18 -13
9 -19 40 -25 141 -5 71 -13 161 -19 199 -14 102 -12 211 4 243 7 15 17 52 21
82 4 30 14 67 21 82 18 35 18 107 -1 183 -25 106 -24 111 65 204 44 47 80 89
80 94 0 20 -32 117 -41 122 -5 4 -9 30 -9 60 0 65 -7 85 -29 84 -9 -1 -81 -18
-161 -39z"/>
<path d="M21180 15335 c-14 -7 -47 -17 -73 -20 -41 -6 -48 -10 -44 -26 4 -14
0 -19 -15 -19 -10 0 -28 -5 -38 -10 -14 -8 -21 -6 -28 6 -8 14 -10 14 -21 0
-8 -9 -25 -16 -40 -16 -14 0 -36 -3 -49 -6 -21 -6 -21 -7 -5 -19 15 -11 13
-13 -17 -20 -21 -5 -35 -4 -37 2 -5 14 -116 -32 -128 -53 -7 -12 -6 -18 3 -21
16 -6 17 -236 0 -301 -12 -50 -15 -53 -97 -109 -71 -49 -118 -98 -126 -133 -3
-16 -13 -34 -21 -41 -25 -20 -15 -52 36 -114 53 -63 59 -82 35 -118 -10 -15
-19 -83 -29 -207 l-15 -183 22 -22 c12 -12 64 -46 115 -76 51 -30 105 -62 120
-71 44 -28 95 -56 125 -69 19 -8 35 -26 47 -55 19 -43 83 -114 126 -137 172
-93 233 -177 251 -347 6 -60 21 -103 59 -170 17 -32 17 -74 -1 -125 -17 -45
-19 -81 -6 -89 4 -3 11 -29 15 -58 8 -68 34 -117 65 -125 14 -3 36 -12 50 -19
14 -8 36 -14 49 -14 12 0 29 -9 38 -19 70 -82 68 -81 136 -77 34 2 117 9 183
15 66 6 174 11 240 11 66 0 176 7 245 15 69 8 223 17 343 21 263 8 257 5 257
121 0 53 -4 75 -14 79 -7 3 -28 37 -46 76 -32 69 -33 73 -33 221 -1 119 3 177
21 267 12 63 34 176 48 250 14 74 29 142 33 150 5 9 12 45 16 80 4 36 13 90
21 120 15 57 19 162 7 174 -4 4 -48 -36 -98 -89 -97 -101 -118 -111 -164 -79
-21 15 -23 22 -17 68 7 54 25 112 50 161 9 17 16 37 16 45 0 8 9 32 20 52 12
22 16 40 10 43 -16 10 -11 28 5 21 16 -6 17 -1 20 82 1 41 0 43 -35 52 -20 6
-45 19 -55 30 -16 18 -17 26 -7 71 7 28 12 73 12 100 0 39 -3 49 -17 49 -38 0
-118 53 -146 96 -22 34 -37 46 -70 54 -23 6 -62 18 -87 26 -25 8 -58 14 -73
14 -15 0 -44 7 -64 15 -20 9 -71 18 -112 22 -42 3 -81 9 -86 14 -6 4 -35 11
-65 15 -30 3 -73 14 -95 24 -22 10 -67 20 -100 24 -33 4 -64 11 -69 16 -6 6
-23 10 -38 10 -53 0 -95 25 -108 64 -7 22 -22 42 -38 50 -31 15 -163 46 -198
46 -18 0 -22 4 -17 16 5 14 2 16 -23 10 -16 -4 -30 -12 -32 -17 -5 -14 -38
-11 -51 5 -9 10 -10 33 -3 82 12 90 8 104 -32 104 -17 -1 -42 -7 -56 -15z"/>
<path d="M29495 15254 c-27 -7 -86 -20 -130 -30 -44 -9 -105 -23 -135 -30 -30
-8 -82 -21 -115 -29 -94 -24 -128 -40 -218 -104 -93 -66 -164 -139 -222 -228
-37 -56 -133 -204 -200 -308 -47 -73 -48 -81 -15 -119 26 -29 30 -42 30 -92 0
-33 6 -93 14 -134 17 -89 14 -98 -79 -210 -92 -110 -123 -135 -195 -163 -288
-109 -324 -118 -409 -97 -67 16 -306 -3 -392 -31 -87 -29 -175 -77 -189 -105
-16 -29 -1 -65 35 -84 30 -16 43 -43 59 -120 18 -84 11 -96 -129 -255 -231
-262 -253 -299 -223 -362 13 -28 14 -28 93 -24 45 2 87 9 95 16 8 7 48 15 87
18 41 3 83 13 95 21 15 11 45 16 91 16 44 0 76 5 91 15 13 9 57 19 98 22 40 3
82 12 93 19 11 7 56 16 99 20 44 4 91 13 105 20 15 8 57 14 95 14 52 0 74 4
89 17 13 13 41 19 95 21 43 2 84 10 92 17 8 7 51 16 95 20 44 4 89 13 100 21
12 9 46 14 89 14 49 0 75 5 87 16 11 10 45 17 96 21 43 3 87 12 98 19 11 7 58
16 105 20 47 4 94 13 105 20 34 24 51 19 187 -58 32 -18 42 -33 88 -125 23
-45 52 -91 65 -101 13 -10 59 -31 102 -46 43 -15 92 -34 108 -41 17 -7 50 -18
75 -25 67 -17 204 -60 263 -82 19 -8 30 -20 34 -40 6 -33 15 -40 36 -32 23 9
37 59 30 113 -5 46 -4 49 31 76 38 29 46 57 21 81 -8 9 -15 31 -15 50 0 19 -6
47 -14 62 -7 15 -17 61 -20 102 -4 41 -14 94 -22 118 -8 23 -14 65 -14 93 0
27 -6 62 -14 77 -10 20 -15 99 -19 317 -3 225 -8 298 -19 325 -9 19 -18 60
-22 91 -3 31 -13 72 -21 92 -8 20 -15 53 -15 74 0 44 -27 93 -65 119 -58 40
-77 64 -71 89 8 30 -12 125 -30 146 -8 8 -14 21 -14 29 0 7 -8 27 -19 44 -16
27 -17 44 -11 136 8 119 -4 181 -41 224 -27 30 -38 74 -38 154 -1 38 -6 57
-21 72 -23 23 -44 23 -115 4z"/>
<path d="M24168 14825 c-31 -17 -68 -82 -60 -105 2 -8 18 -28 33 -44 16 -15
29 -38 29 -51 0 -26 -17 -42 -92 -84 -32 -18 -61 -38 -65 -44 -5 -7 -11 -61
-14 -122 -5 -95 -10 -118 -35 -170 -23 -48 -34 -61 -56 -63 -31 -4 -64 27 -73
69 -14 63 -50 61 -125 -7 -70 -64 -83 -99 -91 -259 -6 -133 -18 -192 -43 -225
-36 -46 -37 -105 -2 -195 19 -51 20 -106 1 -131 -8 -10 -15 -27 -15 -36 0 -14
88 -212 120 -270 6 -10 10 -25 10 -33 0 -8 6 -15 14 -15 19 0 24 -29 36 -185
26 -333 26 -331 -9 -434 -19 -55 -40 -101 -54 -112 -12 -10 -19 -18 -15 -19 4
0 -6 -36 -22 -81 -17 -44 -30 -85 -30 -90 0 -12 147 -12 190 1 19 6 103 15
185 21 83 5 166 14 185 20 19 6 107 14 195 19 133 7 162 6 175 -5 13 -11 24
-12 51 -5 18 6 59 10 89 10 30 0 71 5 90 11 19 7 82 18 140 25 111 14 205 31
230 43 8 4 26 30 40 58 14 28 31 58 39 67 7 9 11 22 8 31 -4 8 0 29 7 47 7 18
16 64 20 101 6 59 12 75 51 128 33 45 47 76 56 122 14 70 51 117 92 117 46 0
67 29 79 106 l11 70 -86 262 c-91 275 -119 342 -160 381 -38 35 -95 31 -154
-11 -41 -30 -111 -110 -112 -131 -1 -12 -53 -90 -80 -119 -19 -22 -34 -28 -65
-28 -49 0 -120 31 -134 57 -10 18 -16 59 -12 78 1 6 1 25 0 43 -2 37 11 60 74
131 24 27 51 71 61 97 9 27 20 56 23 64 3 8 6 20 7 25 0 6 11 28 25 50 21 34
24 51 25 135 l0 95 -47 82 c-52 89 -54 100 -36 167 11 42 10 47 -16 86 -36 55
-75 77 -154 85 -95 10 -167 38 -217 84 -24 22 -63 45 -87 52 -23 7 -47 19 -53
26 -16 21 -145 26 -177 8z"/>
<path d="M15172 14706 c-15 -58 -22 -117 -22 -179 0 -51 -6 -130 -14 -177 -21
-120 -56 -481 -56 -570 0 -41 -7 -124 -15 -185 -9 -60 -20 -209 -25 -330 -6
-121 -14 -251 -19 -290 -6 -38 -7 -73 -3 -76 4 -4 52 -12 107 -18 55 -6 134
-15 175 -20 41 -5 174 -12 295 -16 121 -3 245 -10 276 -16 30 -5 174 -14 320
-19 145 -6 293 -14 329 -20 36 -5 169 -12 295 -16 127 -3 255 -10 285 -15 30
-4 174 -13 320 -19 298 -12 284 -9 408 -102 74 -55 116 -62 160 -27 26 20 34
21 182 14 111 -5 160 -11 171 -21 8 -8 18 -14 21 -14 4 0 53 -31 110 -69 56
-38 107 -67 111 -64 5 3 6 21 2 41 -5 26 -1 49 15 86 45 104 50 117 56 155 5
31 2 46 -14 68 -14 20 -21 53 -27 115 -6 81 -5 90 16 119 12 17 26 50 30 73 4
22 11 278 15 568 l7 527 -27 42 c-15 22 -54 68 -87 100 -32 33 -62 72 -65 86
-7 28 33 120 68 155 25 25 7 52 -31 45 -14 -3 -60 1 -101 8 -43 8 -196 16
-360 20 -157 3 -341 12 -410 20 -69 8 -262 16 -430 19 -168 3 -336 10 -375 16
-38 5 -151 12 -250 15 -378 11 -462 15 -535 24 -41 5 -190 12 -330 15 -140 3
-323 9 -406 12 l-150 7 -22 -87z"/>
<path d="M11809 14531 c-5 -14 -14 -37 -18 -51 -5 -14 -12 -65 -15 -113 -4
-49 -13 -104 -21 -124 -8 -19 -15 -53 -15 -74 0 -21 -5 -50 -10 -65 -6 -15
-15 -62 -20 -103 -5 -42 -16 -114 -25 -161 -18 -101 -31 -187 -46 -290 -5 -41
-16 -106 -24 -145 -8 -38 -17 -99 -20 -135 -4 -36 -13 -87 -21 -114 -8 -27
-14 -70 -14 -96 0 -25 -7 -72 -15 -103 -8 -32 -19 -97 -25 -145 -5 -48 -14
-102 -19 -120 -6 -18 -13 -65 -17 -105 -3 -40 -13 -97 -20 -127 -8 -30 -14
-75 -14 -100 0 -26 -7 -69 -15 -97 -15 -51 -37 -205 -39 -278 -1 -40 -1 -40
44 -47 51 -8 156 -22 275 -38 44 -6 112 -17 150 -25 39 -8 104 -17 145 -21 41
-3 100 -12 130 -20 30 -8 77 -14 105 -14 27 0 77 -7 110 -15 33 -8 110 -17
170 -20 61 -4 144 -13 185 -20 41 -8 124 -17 184 -20 59 -4 122 -11 140 -16
17 -5 94 -14 172 -19 77 -6 156 -15 174 -20 18 -5 81 -12 139 -15 58 -4 144
-12 191 -20 47 -8 139 -19 205 -24 66 -6 143 -15 170 -20 28 -6 80 -10 116
-10 37 -1 102 -8 145 -16 44 -8 135 -19 204 -24 69 -6 155 -16 191 -22 36 -7
72 -10 81 -7 12 5 16 34 22 140 3 73 11 151 16 173 5 22 12 101 15 175 4 74
13 182 20 240 8 58 17 164 20 235 4 72 10 157 15 190 5 33 14 161 20 285 5
124 17 257 25 295 8 40 15 126 16 200 0 72 5 155 10 185 9 57 24 237 32 400 7
134 8 132 -146 141 -68 3 -132 11 -143 16 -10 6 -71 13 -134 17 -64 3 -138 12
-165 20 -28 8 -99 17 -160 20 -60 3 -135 13 -165 21 -30 8 -88 15 -130 15 -42
0 -100 6 -130 14 -30 7 -106 17 -168 20 -63 4 -126 12 -140 18 -15 6 -87 14
-160 19 -72 4 -142 14 -154 20 -12 7 -81 15 -152 19 -72 4 -144 12 -161 18
-16 6 -81 13 -142 16 -62 4 -125 11 -140 17 -16 6 -88 15 -161 20 -72 4 -142
14 -154 20 -12 6 -80 15 -152 19 -72 5 -144 13 -161 18 -16 6 -68 12 -113 15
-83 4 -84 3 -93 -22z"/>
<path d="M31095 14152 c-37 -12 -75 -44 -75 -63 0 -38 -42 -69 -106 -78 -33
-5 -82 -16 -108 -25 -25 -9 -62 -16 -82 -16 -19 0 -50 -6 -69 -14 -18 -8 -60
-18 -92 -21 -32 -4 -70 -14 -85 -21 -15 -8 -42 -14 -61 -14 -19 0 -63 -9 -97
-20 -34 -11 -76 -20 -93 -20 -17 0 -60 -9 -96 -21 -36 -12 -72 -23 -78 -25
-10 -2 -13 -52 -13 -203 0 -248 -11 -236 165 -192 37 9 77 17 210 43 28 5 70
16 95 23 25 8 69 17 99 21 30 3 69 13 87 20 18 8 49 14 69 14 20 0 48 6 63 14
15 8 50 17 77 21 28 4 62 14 77 21 50 26 73 18 120 -38 23 -29 54 -62 68 -73
59 -47 85 -77 72 -82 -21 -8 -2 -23 31 -23 36 0 52 9 52 28 0 16 115 132 132
132 27 0 11 30 -62 111 -77 87 -122 119 -165 119 -14 0 -40 9 -57 20 -31 19
-33 23 -33 77 0 56 4 67 53 153 23 40 17 69 -24 109 -31 32 -39 34 -74 23z"/>
<path d="M5092 14043 c-8 -3 -22 -25 -33 -50 -17 -39 -18 -60 -13 -176 7 -132
7 -132 -24 -205 -26 -59 -29 -74 -17 -78 12 -5 12 -9 -2 -30 -9 -14 -22 -23
-29 -20 -8 3 -14 0 -14 -7 0 -32 -59 -130 -129 -216 -43 -53 -93 -120 -111
-149 -31 -50 -32 -58 -28 -125 4 -56 13 -89 42 -149 20 -42 42 -78 50 -81 7
-3 23 -32 35 -66 20 -52 22 -73 18 -153 -3 -51 -15 -145 -28 -208 -49 -256
-56 -305 -47 -342 4 -20 47 -122 94 -225 102 -222 119 -270 102 -290 -6 -8
-14 -52 -16 -99 -4 -77 -3 -84 14 -84 10 0 44 -28 75 -61 l56 -62 26 23 c15
13 27 33 27 44 1 72 25 81 112 41 30 -14 79 -27 109 -30 67 -7 87 -13 121 -36
28 -20 88 -26 88 -9 0 6 8 10 18 10 16 -1 52 -61 52 -89 0 -13 -89 -11 -165 3
-211 39 -247 22 -235 -114 6 -71 14 -77 23 -20 2 14 5 -17 6 -67 1 -85 -1 -93
-18 -93 -11 0 -21 3 -23 8 -9 20 -94 82 -114 82 -44 0 -54 -23 -54 -130 0 -85
2 -99 18 -104 9 -3 25 -28 35 -55 22 -62 55 -102 112 -135 54 -32 85 -75 92
-127 5 -32 0 -47 -22 -80 -16 -22 -37 -45 -47 -50 -43 -23 -72 -136 -58 -226
5 -29 38 -127 74 -218 36 -90 66 -167 66 -170 0 -22 68 -135 119 -200 84 -105
93 -125 85 -184 -6 -50 0 -70 51 -140 14 -19 25 -43 25 -55 0 -12 -16 -90 -37
-173 l-37 -153 21 -44 c30 -60 76 -85 253 -136 207 -59 234 -73 316 -166 144
-163 216 -230 269 -248 28 -10 73 -28 102 -41 l51 -24 17 -76 c21 -94 41 -118
125 -147 l65 -23 144 -210 c161 -236 141 -180 176 -480 20 -169 32 -201 80
-221 19 -8 131 -25 248 -39 116 -14 264 -31 327 -39 63 -8 203 -24 310 -37
107 -13 197 -27 198 -31 5 -12 52 -9 52 3 0 6 8 3 17 -7 14 -14 31 -16 102
-12 72 5 93 10 129 34 61 40 59 70 -13 138 l-55 52 0 66 0 66 75 77 c41 43 75
82 75 89 0 6 6 23 14 37 7 14 17 52 21 84 4 32 10 65 15 74 4 9 12 29 16 45 5
16 21 37 35 45 138 86 195 127 193 142 -1 5 -2 19 -3 32 0 12 -18 40 -38 62
-20 22 -40 56 -44 75 -4 19 -12 53 -18 75 -6 22 -11 68 -11 101 0 35 -7 74
-15 90 -8 16 -15 39 -15 51 0 22 -36 98 -59 125 -6 7 -26 35 -44 62 -18 27
-36 56 -42 65 -5 8 -34 50 -62 93 -29 43 -53 82 -53 85 0 3 -7 13 -15 22 -14
14 -40 52 -90 130 -6 9 -33 50 -60 91 -58 87 -61 91 -100 155 -16 26 -38 55
-47 64 -10 8 -18 19 -18 23 0 4 -25 44 -55 88 -30 44 -55 84 -55 89 0 4 -9 16
-20 26 -11 10 -20 22 -20 27 0 8 -37 65 -50 78 -13 12 -130 192 -130 199 0 4
-9 16 -20 26 -11 10 -20 22 -20 27 0 9 -36 62 -57 86 -7 7 -13 17 -13 22 0 5
-6 15 -12 22 -20 21 -98 138 -98 147 0 4 -9 16 -20 26 -11 10 -20 22 -20 27 0
9 -36 62 -57 86 -7 7 -13 17 -13 22 0 5 -6 15 -13 22 -13 13 -88 124 -97 143
-9 19 -124 190 -137 203 -7 7 -13 18 -13 24 0 5 -16 29 -35 52 -19 24 -35 46
-35 49 0 7 -121 188 -137 205 -7 7 -13 18 -13 24 0 5 -16 29 -35 52 -19 24
-35 46 -35 49 0 7 -121 188 -137 205 -7 7 -13 18 -13 24 0 5 -16 29 -35 52
-19 24 -35 46 -35 49 0 3 -34 56 -75 117 -41 61 -75 115 -75 119 0 5 -7 14
-15 21 -19 15 -19 53 -1 88 7 15 16 48 19 75 4 26 13 61 22 77 8 16 15 43 15
60 0 17 6 43 14 58 8 15 17 50 21 77 4 28 14 62 21 77 8 15 14 42 14 60 0 18
9 53 20 77 11 24 20 60 20 80 0 20 6 45 14 56 7 11 17 45 21 75 4 30 13 64 19
75 7 11 16 43 19 72 3 29 13 65 21 82 9 16 16 46 16 66 0 20 6 48 14 63 8 15
17 50 21 77 4 28 14 62 21 77 8 15 14 38 14 52 0 14 9 48 20 76 11 28 20 64
20 81 0 16 6 42 14 57 8 15 17 50 21 77 4 28 14 62 21 77 8 15 14 38 14 51 0
14 7 48 16 76 19 58 10 81 -32 81 -13 0 -41 9 -61 20 -21 11 -50 20 -66 20
-15 0 -40 6 -55 14 -15 7 -50 17 -79 21 -29 4 -57 13 -64 21 -6 8 -26 14 -44
14 -18 0 -52 9 -76 20 -24 11 -58 20 -74 20 -17 0 -39 6 -50 14 -11 7 -40 16
-64 20 -24 4 -56 13 -72 21 -15 8 -43 15 -61 15 -19 0 -43 7 -55 15 -11 8 -40
17 -64 21 -24 4 -55 12 -69 19 -14 7 -47 16 -75 20 -27 4 -58 13 -69 21 -11 8
-32 14 -47 14 -15 0 -46 9 -70 20 -24 11 -60 20 -80 20 -20 0 -42 6 -48 14 -6
7 -34 17 -63 20 -28 4 -60 14 -72 22 -11 8 -36 14 -56 14 -20 0 -45 7 -57 15
-11 8 -40 17 -64 21 -24 4 -56 13 -70 20 -14 7 -49 16 -77 20 -29 3 -57 13
-63 20 -11 14 -42 17 -67 7z"/>
<path d="M31006 13545 c-11 -8 -36 -15 -57 -15 -51 0 -66 -21 -50 -67 7 -19
17 -70 21 -112 4 -42 12 -89 18 -106 6 -16 14 -42 17 -57 7 -34 13 -34 56 -5
l34 23 5 114 c3 73 10 123 19 136 12 17 11 25 -8 62 -24 46 -27 48 -55 27z"/>
<path d="M31507 13533 c-13 -13 -7 -61 9 -67 19 -7 86 23 78 35 -3 5 -15 9
-26 9 -12 0 -29 7 -38 15 -9 8 -20 12 -23 8z"/>
<path d="M30720 13476 c-14 -7 -52 -16 -85 -19 -33 -3 -73 -12 -90 -21 -16 -9
-49 -16 -73 -16 -23 0 -59 -7 -79 -15 -21 -9 -64 -18 -98 -22 -33 -3 -72 -12
-87 -19 -15 -8 -46 -14 -70 -14 -67 0 -72 -7 -66 -89 3 -39 11 -77 18 -85 6
-9 14 -53 17 -98 3 -46 10 -91 15 -100 4 -10 13 -40 18 -69 5 -28 18 -58 29
-67 40 -35 30 -86 -20 -104 -8 -3 -12 -8 -8 -11 7 -9 96 56 93 68 -1 6 35 43
81 82 91 80 135 99 359 162 60 17 133 42 163 56 l55 25 -5 52 c-10 98 -26 193
-44 256 l-18 62 -40 0 c-22 -1 -51 -7 -65 -14z"/>
<path d="M7106 13428 c-7 -13 -17 -45 -21 -73 -4 -27 -13 -62 -21 -77 -8 -15
-14 -37 -14 -50 0 -13 -8 -52 -19 -88 -25 -84 -39 -141 -55 -215 -7 -33 -18
-70 -24 -82 -7 -12 -12 -35 -12 -52 0 -17 -9 -53 -20 -81 -11 -28 -20 -62 -20
-75 0 -13 -5 -36 -12 -52 -6 -15 -17 -53 -24 -83 -14 -63 -28 -117 -54 -210
-29 -108 -40 -152 -54 -215 -7 -33 -18 -70 -24 -82 -7 -12 -12 -33 -12 -48 0
-14 -9 -51 -20 -82 -11 -32 -20 -70 -20 -86 0 -15 -6 -40 -14 -55 -7 -15 -17
-47 -21 -72 -3 -25 -11 -59 -17 -76 -12 -33 0 -80 26 -107 19 -20 136 -198
136 -206 0 -4 9 -16 20 -26 11 -10 20 -22 20 -27 0 -4 17 -32 37 -61 67 -95
143 -208 143 -212 0 -4 76 -117 143 -212 20 -29 37 -57 37 -61 0 -5 9 -17 20
-27 11 -10 20 -22 20 -26 0 -8 60 -98 141 -214 20 -28 38 -55 40 -60 5 -13
161 -248 169 -255 7 -6 43 -61 50 -75 3 -6 50 -77 105 -159 55 -81 105 -155
110 -163 6 -9 92 -139 193 -290 100 -151 182 -277 182 -281 0 -3 7 -14 17 -24
9 -10 21 -27 27 -37 6 -11 47 -73 91 -137 44 -65 82 -123 84 -129 2 -5 10 -18
19 -28 8 -9 20 -26 26 -37 6 -10 48 -74 94 -140 45 -67 82 -125 82 -129 0 -4
9 -16 20 -26 11 -10 20 -23 20 -28 0 -16 71 -98 80 -92 5 3 16 31 25 62 13 44
18 119 22 325 4 188 10 273 18 285 10 13 34 18 107 21 104 5 133 -4 148 -44
12 -30 37 -30 70 -1 52 45 56 57 91 262 6 33 17 85 24 115 8 30 17 84 20 120
4 36 12 81 20 100 7 19 18 67 24 105 18 123 32 199 46 250 7 28 16 75 20 105
4 30 13 78 20 105 7 28 18 79 24 115 19 114 32 184 42 230 6 25 16 81 23 125
8 44 18 100 24 125 11 46 25 118 43 225 6 33 16 83 24 110 7 28 16 77 20 109
4 33 11 71 16 85 6 14 15 61 20 106 6 44 17 99 25 123 7 23 14 60 14 81 0 21
6 56 14 77 7 22 17 68 21 104 4 36 14 82 21 104 8 21 14 52 14 69 0 17 9 67
19 112 20 82 31 146 55 297 8 48 17 92 21 98 3 5 12 47 20 93 18 107 34 191
46 247 17 77 18 74 -34 81 -27 4 -67 15 -88 23 -22 9 -57 16 -79 16 -22 0 -57
6 -77 14 -21 8 -63 17 -94 20 -31 3 -72 13 -92 21 -20 8 -55 15 -77 15 -22 0
-66 9 -97 20 -32 11 -74 20 -95 20 -21 0 -53 6 -71 13 -18 8 -61 17 -96 21
-36 4 -76 13 -90 20 -14 8 -56 16 -94 19 -37 2 -73 10 -81 16 -8 7 -47 15 -88
20 -41 5 -83 13 -94 18 -10 6 -46 13 -78 17 -33 4 -65 11 -72 17 -7 6 -41 14
-77 19 -35 5 -77 16 -93 25 -16 8 -47 15 -69 15 -22 0 -52 6 -66 14 -14 7 -53
17 -85 20 -32 4 -68 13 -79 20 -11 7 -46 16 -78 19 -32 3 -64 10 -71 16 -7 6
-43 15 -80 20 -37 5 -73 14 -79 19 -7 5 -38 12 -70 16 -32 3 -72 13 -87 21
-16 8 -46 15 -67 15 -21 0 -58 9 -82 20 -24 11 -60 20 -80 20 -20 0 -49 7 -65
15 -43 23 -93 19 -110 -7z"/>
<path d="M29048 13076 c-10 -7 -52 -16 -94 -19 -41 -3 -82 -11 -89 -17 -8 -7
-49 -16 -92 -20 -43 -4 -96 -15 -118 -23 -22 -9 -64 -16 -93 -17 -29 0 -63 -5
-74 -11 -12 -7 -58 -16 -102 -21 -44 -4 -85 -13 -91 -18 -6 -5 -47 -14 -91
-18 -44 -5 -89 -14 -100 -20 -11 -6 -53 -14 -94 -17 -41 -4 -87 -14 -102 -21
-15 -8 -48 -14 -73 -14 -25 0 -71 -9 -102 -20 -32 -11 -79 -20 -105 -20 -27 0
-65 -7 -86 -16 -20 -8 -66 -18 -102 -21 -36 -3 -73 -10 -83 -15 -9 -5 -56 -13
-103 -19 -48 -5 -94 -14 -104 -19 -10 -5 -56 -14 -101 -19 -94 -10 -99 -8 -99
51 0 27 -5 38 -19 43 -27 8 -46 -2 -147 -77 -138 -102 -170 -149 -145 -212 7
-17 14 -65 17 -106 3 -41 12 -91 19 -111 8 -20 17 -72 21 -115 3 -44 12 -98
20 -122 8 -23 14 -68 14 -100 1 -31 8 -75 16 -97 8 -22 18 -80 21 -130 3 -49
11 -101 18 -115 7 -14 16 -65 20 -115 4 -49 13 -101 20 -115 7 -14 15 -65 19
-115 6 -77 10 -94 31 -114 24 -24 24 -24 82 -8 32 9 87 19 123 22 36 3 87 12
114 20 27 8 66 15 87 15 21 0 64 7 96 15 32 8 83 18 113 21 30 3 73 12 95 19
22 8 69 17 105 20 36 4 70 11 77 16 6 6 47 14 90 18 43 4 88 13 99 19 11 6 49
14 84 17 36 4 83 13 105 20 22 8 65 16 95 20 30 3 74 13 98 21 23 8 61 14 83
14 22 0 56 7 75 15 20 8 66 18 102 21 37 4 76 11 86 16 10 6 50 14 88 19 38 5
89 15 114 24 25 8 64 15 87 15 23 0 60 7 83 15 23 7 65 17 95 20 49 6 59 12
105 61 50 53 52 54 106 54 61 0 49 -10 246 201 62 65 76 100 48 116 -17 10
-139 117 -220 194 -55 52 -58 57 -46 80 8 13 14 55 14 92 1 55 -2 70 -16 78
-24 14 -23 26 12 89 16 30 34 67 41 83 6 15 15 27 19 27 4 0 11 12 15 28 3 15
13 34 20 42 24 27 8 57 -35 64 -45 7 -115 72 -125 116 -3 16 -13 34 -21 41 -8
6 -14 19 -14 29 0 20 -77 94 -107 104 -12 4 -27 13 -33 21 -16 19 -89 19 -112
1z"/>
<path d="M20945 13044 c-274 -16 -618 -25 -1125 -29 -327 -3 -638 -7 -690 -10
-234 -12 -420 -26 -434 -31 -12 -5 -16 -20 -16 -60 0 -52 14 -87 47 -122 17
-17 16 -24 -2 -48 -8 -10 -15 -28 -15 -39 0 -11 -9 -37 -20 -58 -11 -20 -20
-44 -20 -52 0 -9 -7 -29 -15 -44 -12 -25 -12 -31 0 -47 8 -11 15 -26 15 -34 0
-9 15 -38 33 -66 27 -40 35 -65 40 -117 10 -109 33 -170 131 -349 40 -74 41
-80 36 -144 -6 -72 0 -86 53 -134 l29 -26 8 -229 c9 -256 20 -307 69 -322 34
-11 702 2 1106 21 176 9 457 18 623 20 l304 4 56 -54 57 -55 10 42 c8 31 20
47 53 70 23 16 47 29 51 29 18 0 70 71 77 104 3 20 12 40 20 47 23 19 16 61
-22 135 -32 60 -36 77 -35 134 2 80 18 106 73 121 24 6 54 17 68 24 14 7 41
16 60 20 73 15 158 75 160 111 0 6 8 22 19 35 32 41 53 134 45 198 -3 31 -12
67 -19 81 -7 14 -61 74 -119 134 -58 60 -106 111 -106 113 0 2 -11 21 -25 43
-17 27 -33 40 -48 40 -12 1 -40 9 -62 20 -22 11 -48 19 -57 20 -22 0 -58 69
-58 112 -1 18 -9 51 -20 73 -25 52 -25 95 1 144 14 27 18 48 13 63 -11 35 -54
96 -72 103 -21 8 -194 14 -277 9z"/>
<path d="M10002 12738 c-12 -36 -22 -86 -22 -112 0 -25 -7 -62 -15 -81 -7 -19
-17 -63 -20 -98 -4 -34 -12 -80 -20 -102 -7 -22 -16 -67 -19 -100 -3 -34 -12
-77 -21 -98 -8 -20 -15 -59 -15 -87 0 -28 -7 -67 -16 -88 -8 -20 -17 -66 -20
-102 -3 -36 -12 -81 -19 -100 -7 -19 -16 -65 -19 -102 -3 -37 -12 -80 -19 -95
-8 -15 -17 -61 -19 -100 -3 -40 -11 -79 -17 -87 -6 -7 -14 -45 -17 -82 -3 -38
-12 -87 -19 -109 -8 -22 -16 -68 -20 -102 -3 -35 -13 -79 -20 -98 -8 -19 -15
-56 -15 -83 0 -26 -9 -73 -20 -105 -11 -31 -20 -77 -20 -102 0 -25 -7 -62 -15
-82 -8 -19 -15 -55 -15 -79 0 -25 -9 -70 -20 -101 -11 -32 -20 -78 -20 -103 0
-25 -9 -71 -20 -103 -11 -31 -20 -77 -20 -102 0 -25 -7 -62 -15 -82 -8 -19
-15 -55 -15 -79 0 -25 -9 -70 -20 -101 -11 -32 -20 -79 -20 -105 0 -27 -6 -64
-14 -82 -7 -18 -17 -55 -20 -82 -10 -74 2 -84 110 -95 49 -5 100 -13 114 -19
14 -5 66 -14 115 -19 50 -5 101 -14 115 -19 15 -6 57 -13 95 -17 39 -3 99 -13
135 -20 62 -14 115 -22 280 -46 41 -5 102 -16 135 -24 33 -8 92 -17 130 -21
39 -3 89 -12 113 -20 23 -8 64 -14 90 -14 26 0 83 -9 127 -20 44 -11 101 -20
127 -20 26 0 59 -5 75 -11 15 -6 71 -17 123 -24 52 -7 120 -18 150 -24 65 -12
156 -27 260 -42 41 -6 108 -18 148 -27 53 -12 78 -13 90 -6 25 17 51 102 52
174 0 36 7 90 15 120 8 30 17 89 21 130 3 41 12 109 19 150 8 41 17 109 21
150 3 41 12 102 20 135 8 33 14 85 14 115 0 30 7 82 15 115 8 33 17 98 21 145
3 47 12 110 19 140 8 30 17 91 20 135 4 44 13 111 21 148 8 38 14 92 14 120 0
29 7 80 15 115 8 34 18 95 21 135 3 40 12 101 19 137 7 36 16 99 20 140 3 41
13 107 21 147 8 40 14 95 14 123 0 46 -3 51 -27 61 -16 6 -73 15 -129 19 -55
4 -109 12 -120 17 -10 6 -60 13 -111 17 -51 4 -111 13 -134 21 -23 8 -69 15
-103 15 -33 0 -97 9 -141 20 -44 11 -105 20 -135 20 -81 0 -85 6 -83 97 1 43
9 98 17 122 9 24 16 70 16 102 0 32 7 80 16 106 9 26 20 86 24 133 5 47 10 94
12 105 3 17 -5 21 -52 28 -30 4 -75 14 -100 22 -25 7 -77 16 -117 19 -40 2
-81 10 -93 16 -11 6 -50 13 -88 16 -37 3 -87 12 -112 19 -25 8 -79 17 -120 20
-41 4 -87 14 -102 21 -15 8 -52 14 -82 14 -30 0 -77 7 -102 16 -26 9 -84 19
-128 23 -45 4 -90 12 -101 18 -11 6 -59 14 -106 18 l-86 7 -21 -64z"/>
<path d="M15016 12792 c-3 -5 -8 -40 -11 -78 -4 -38 -13 -103 -20 -144 -7 -41
-16 -142 -19 -225 -3 -82 -13 -185 -21 -228 -8 -43 -15 -127 -15 -185 0 -59
-5 -136 -11 -172 -24 -151 -29 -214 -17 -227 6 -7 31 -13 57 -13 25 0 96 -7
156 -15 61 -8 153 -15 206 -15 52 0 145 -7 207 -15 61 -8 166 -17 232 -21 87
-5 123 -11 127 -20 3 -8 0 -118 -7 -246 -7 -128 -12 -267 -11 -308 3 -122 -29
-113 439 -122 218 -4 480 -12 582 -18 102 -6 420 -15 708 -20 287 -5 526 -11
531 -14 27 -17 1052 -28 1058 -11 1 6 -21 40 -51 78 -50 62 -54 72 -61 136 -6
62 -10 72 -46 107 -21 22 -38 44 -39 50 0 6 -8 22 -19 35 -16 21 -19 50 -24
204 -4 99 -13 211 -20 249 -12 58 -20 73 -51 100 l-36 31 1 95 c1 89 -1 99
-29 150 -77 137 -112 221 -119 281 -6 61 -40 121 -81 143 -10 5 -21 15 -25 23
-4 7 -13 13 -19 13 -13 0 -91 51 -96 63 -2 4 -9 7 -15 7 -7 0 -39 18 -72 40
-33 22 -67 40 -75 40 -9 0 -21 5 -26 10 -6 6 -62 13 -125 17 l-114 6 -62 -37
c-71 -42 -79 -43 -93 -16 -6 11 -15 20 -20 20 -6 0 -38 20 -73 43 -34 24 -72
49 -84 55 -40 22 -218 40 -452 47 -129 4 -257 11 -285 16 -28 5 -175 14 -326
19 -151 5 -302 14 -335 20 -33 6 -184 15 -335 20 -151 5 -293 14 -315 19 -54
13 -641 25 -649 13z"/>
<path d="M29547 12702 c-9 -10 -22 -33 -28 -50 -6 -18 -15 -32 -19 -32 -4 0
-11 -12 -15 -27 -3 -14 -15 -37 -25 -51 -31 -38 -35 -83 -11 -123 19 -32 19
-38 6 -74 -8 -22 -14 -56 -15 -76 0 -38 11 -51 165 -180 22 -19 46 -40 53 -47
8 -7 29 -24 48 -38 19 -15 34 -34 34 -43 0 -9 -51 -68 -113 -133 -206 -213
-207 -215 -207 -297 0 -54 3 -61 33 -88 18 -16 47 -35 65 -42 17 -7 30 -17 27
-21 -2 -4 5 -16 16 -26 15 -14 22 -15 28 -6 6 10 13 11 34 1 20 -9 24 -15 17
-24 -8 -9 -4 -14 12 -18 13 -4 27 -2 32 3 5 5 31 6 58 3 53 -6 88 13 88 48 0
9 19 41 43 69 63 78 84 116 117 218 28 89 30 102 30 261 0 97 -5 181 -11 200
-7 21 -29 44 -66 68 -30 20 -62 47 -70 60 -17 26 -17 28 57 162 23 42 35 146
21 183 -8 20 -19 29 -48 34 -21 3 -48 12 -60 20 -12 8 -34 14 -48 14 -14 0
-43 9 -65 20 -22 11 -52 20 -67 20 -15 0 -37 7 -47 15 -26 20 -49 19 -69 -3z"/>
<path d="M30545 12702 c-22 -10 -61 -25 -87 -32 -27 -8 -48 -19 -48 -25 0 -5
-52 -27 -115 -47 -164 -52 -261 -122 -242 -172 5 -11 20 -16 49 -16 33 0 64
12 132 50 49 27 93 47 98 44 5 -3 32 10 61 29 29 18 90 53 137 76 47 24 92 50
100 58 13 13 12 16 -9 34 -28 23 -26 23 -76 1z"/>
<path d="M26533 12526 c-17 -6 -91 -51 -165 -100 -97 -65 -151 -109 -198 -162
-36 -40 -80 -83 -98 -95 -32 -20 -285 -104 -391 -129 -59 -14 -188 -9 -253 10
-33 10 -38 15 -38 41 0 23 -6 32 -27 42 -16 6 -32 17 -36 24 -4 7 -23 13 -40
13 -18 0 -50 9 -72 20 -46 24 -121 26 -169 6 -19 -8 -69 -17 -112 -21 -44 -4
-97 -13 -119 -20 -22 -8 -78 -16 -125 -19 -101 -7 -136 -26 -133 -72 1 -16 6
-90 12 -164 5 -74 14 -149 19 -166 5 -17 13 -85 17 -150 4 -66 13 -144 21
-175 8 -31 14 -94 14 -140 0 -46 7 -115 16 -154 8 -38 19 -128 24 -200 4 -71
13 -144 18 -162 6 -18 14 -90 17 -160 7 -128 23 -189 52 -200 7 -3 28 2 47 11
65 31 89 23 143 -46 26 -35 56 -74 64 -88 18 -28 74 -55 196 -94 103 -32 118
-32 165 1 37 25 41 26 86 14 26 -7 67 -15 92 -18 43 -4 48 -2 102 46 75 68 92
67 117 -9 8 -24 30 -49 68 -77 49 -38 62 -43 109 -43 45 0 58 4 83 29 42 41
58 100 41 150 -7 21 -10 52 -7 68 11 57 49 151 67 168 18 17 21 16 50 -9 38
-32 48 -33 54 -3 33 178 44 208 107 276 51 56 59 61 98 61 54 0 84 21 151 105
59 74 90 163 90 260 0 33 5 78 11 100 6 22 16 77 21 122 9 75 9 86 -10 121
-11 22 -23 64 -27 95 -6 50 -5 57 14 69 26 16 27 53 6 135 -8 31 -15 80 -15
109 0 28 -6 67 -14 85 -7 19 -17 70 -21 114 -3 44 -13 102 -21 129 -8 27 -14
75 -14 105 0 69 -14 123 -38 143 -14 13 -23 14 -49 4z"/>
<path d="M22675 12469 c-110 -4 -229 -12 -265 -18 -36 -6 -155 -13 -265 -16
-218 -6 -459 -31 -474 -49 -7 -8 16 -38 70 -94 103 -108 109 -121 109 -231 0
-94 -2 -100 -67 -209 -13 -20 -30 -51 -38 -69 -10 -22 -26 -35 -52 -44 -21 -6
-47 -18 -58 -25 -11 -8 -30 -14 -42 -14 -13 0 -40 -9 -60 -20 -21 -11 -46 -20
-56 -20 -10 0 -27 -10 -38 -22 -23 -29 -26 -110 -4 -128 8 -7 15 -22 15 -34 0
-11 9 -34 20 -51 25 -38 25 -95 0 -142 -11 -21 -20 -43 -20 -50 0 -31 -80
-123 -108 -123 -5 0 -23 -12 -40 -27 -27 -26 -30 -35 -35 -106 -2 -43 -9 -83
-16 -90 -16 -16 -14 -120 4 -153 8 -16 15 -40 15 -54 0 -14 6 -35 14 -46 8
-11 17 -36 21 -56 8 -39 32 -69 120 -143 52 -44 132 -115 173 -152 7 -7 18
-13 23 -13 11 0 49 -83 49 -108 1 -9 9 -35 20 -57 11 -22 19 -50 20 -62 0 -31
27 -43 64 -30 17 5 36 14 42 19 12 9 162 -56 176 -76 12 -18 9 -60 -6 -81 -7
-11 -16 -38 -20 -59 -4 -22 -14 -49 -22 -60 -8 -11 -14 -30 -14 -41 0 -11 -7
-41 -17 -67 -27 -75 2 -143 85 -198 13 -8 57 -39 100 -68 42 -29 106 -73 142
-97 126 -86 129 -90 166 -223 11 -40 12 -65 5 -105 -9 -47 -7 -57 17 -106 30
-61 61 -87 112 -96 35 -6 36 -6 59 47 39 88 33 83 97 80 33 -2 80 -13 105 -24
26 -11 60 -18 75 -16 l29 3 5 95 c5 104 11 120 42 120 11 0 39 9 62 19 23 11
49 22 59 25 16 5 16 8 4 33 -25 50 -27 87 -6 122 23 38 24 64 3 96 -15 22 -14
27 5 70 12 25 30 65 41 89 11 24 20 48 20 53 0 6 7 16 15 23 8 7 15 21 15 31
0 11 9 36 20 56 11 21 20 45 20 54 0 9 6 22 14 28 8 7 17 27 20 45 4 19 13 39
21 46 8 7 15 20 15 29 0 9 9 33 20 54 25 46 25 59 1 105 -34 66 -61 129 -61
143 0 8 -7 23 -15 33 -19 25 -19 60 -1 75 30 25 36 126 22 358 -8 122 -17 226
-21 233 -4 6 -11 95 -16 198 -4 103 -13 204 -19 224 -6 20 -14 120 -19 221 -5
102 -12 190 -15 196 -4 5 -11 69 -16 140 -9 133 -31 210 -71 256 -22 25 -89
160 -89 178 0 8 -9 35 -21 61 -11 26 -17 55 -14 66 10 31 -12 60 -43 58 -15
-1 -117 -5 -227 -9z"/>
<path d="M24320 12130 c-47 -4 -107 -13 -135 -18 -27 -6 -103 -13 -167 -16
-64 -3 -128 -10 -142 -16 -15 -5 -79 -12 -144 -16 -64 -3 -135 -10 -156 -16
-61 -15 -156 -61 -156 -75 0 -17 -57 -46 -65 -33 -4 6 -13 5 -24 -2 -13 -8
-33 -8 -69 -1 -87 17 -96 -4 -67 -154 8 -43 19 -157 25 -253 5 -96 14 -209 20
-250 5 -41 14 -136 20 -210 25 -340 31 -411 40 -500 6 -52 13 -112 16 -133 4
-25 1 -50 -9 -70 -44 -92 -44 -131 4 -233 10 -22 19 -47 19 -55 0 -8 7 -23 15
-33 20 -26 20 -110 0 -126 -8 -7 -15 -19 -15 -28 0 -8 -9 -36 -21 -61 -40 -87
-75 -169 -109 -251 -12 -30 -30 -71 -39 -90 -10 -19 -21 -47 -25 -62 -5 -23
-3 -28 13 -28 10 0 21 7 25 15 7 19 53 19 90 0 40 -21 44 -19 54 18 10 41 43
46 106 18 25 -12 49 -21 54 -21 5 0 31 -9 57 -21 27 -12 56 -18 70 -15 13 3
47 33 76 67 57 66 74 70 126 29 27 -21 53 -17 53 8 0 8 13 43 30 78 27 57 33
64 71 74 40 11 43 10 100 -29 33 -23 66 -41 74 -41 7 0 25 26 39 58 52 113 61
126 104 150 30 17 56 45 89 94 45 70 46 72 40 134 -4 43 -2 65 6 72 13 10 82
33 157 52 112 27 125 32 132 43 11 17 9 85 -3 132 -12 51 -14 68 -27 245 -6
80 -15 157 -20 171 -6 14 -13 80 -17 145 -4 65 -13 146 -20 179 -8 33 -16 112
-20 176 -3 64 -10 132 -16 150 -5 19 -14 97 -19 175 -5 77 -14 152 -19 166 -5
14 -13 81 -17 149 -4 68 -15 156 -24 194 l-17 70 -39 1 c-21 1 -77 -2 -124 -6z"/>
<path d="M12370 11711 c-5 -11 -10 -53 -10 -94 0 -40 -6 -96 -14 -123 -8 -27
-17 -91 -21 -143 -4 -52 -11 -106 -17 -120 -6 -14 -14 -73 -18 -131 -5 -58
-16 -132 -24 -165 -9 -32 -16 -89 -16 -126 0 -36 -6 -84 -13 -105 -8 -22 -17
-84 -20 -139 -4 -56 -13 -121 -21 -145 -8 -25 -17 -89 -20 -143 -3 -53 -11
-107 -17 -118 -6 -12 -15 -71 -19 -133 -4 -61 -13 -124 -18 -141 -6 -16 -13
-70 -16 -120 -3 -49 -11 -106 -17 -125 -6 -19 -15 -80 -19 -135 -5 -55 -16
-127 -24 -160 -9 -32 -16 -97 -16 -142 l0 -84 48 -20 c33 -14 85 -23 172 -30
69 -5 161 -13 205 -19 44 -5 134 -15 200 -21 66 -6 138 -15 160 -20 22 -5 112
-13 200 -19 163 -10 366 -32 465 -50 31 -5 98 -12 150 -15 52 -3 136 -13 185
-20 50 -8 144 -19 210 -24 66 -6 183 -15 260 -21 77 -6 172 -18 210 -26 39 -8
113 -17 165 -19 90 -5 305 -25 490 -44 47 -5 105 -14 130 -20 67 -15 365 -14
378 2 15 19 22 70 31 217 5 74 14 196 20 270 6 74 15 227 20 340 5 113 12 230
15 260 4 30 11 156 16 280 5 124 14 290 19 370 6 80 15 246 21 370 6 124 15
245 20 270 5 25 9 95 10 156 l0 111 -167 6 c-93 3 -203 13 -246 22 -45 8 -135
15 -210 16 -73 0 -157 5 -187 10 -30 5 -120 14 -200 19 -80 5 -179 16 -220 25
-41 8 -120 17 -175 19 -55 3 -131 12 -170 20 -38 9 -108 16 -155 16 -47 0
-112 6 -145 14 -33 8 -112 17 -175 21 -63 3 -144 13 -180 20 -36 7 -114 16
-175 19 -60 2 -137 12 -170 20 -32 9 -100 16 -150 16 -49 0 -117 7 -150 14
-33 8 -113 17 -178 21 -65 4 -141 13 -170 21 -29 8 -91 14 -139 14 -76 0 -89
-2 -98 -19z"/>
<path d="M29313 11608 c-30 -39 -34 -75 -18 -134 9 -33 25 -77 36 -100 10 -22
19 -55 19 -72 0 -18 7 -49 15 -69 8 -19 15 -45 15 -57 0 -12 6 -31 14 -42 8
-12 18 -45 22 -75 4 -30 13 -63 20 -74 6 -11 15 -45 19 -75 4 -30 14 -64 21
-75 8 -11 14 -30 14 -44 0 -22 3 -23 38 -18 192 30 196 32 189 116 -4 58 -2
55 -120 154 -34 28 -58 62 -93 134 -31 62 -66 116 -99 151 l-52 54 5 119 c5
114 4 119 -15 119 -11 0 -25 -6 -30 -12z"/>
<path d="M29090 11496 c-14 -7 -54 -16 -90 -19 -36 -3 -82 -13 -102 -21 -21
-9 -60 -16 -88 -16 -28 0 -65 -7 -81 -16 -17 -8 -63 -18 -102 -21 -40 -3 -83
-11 -97 -18 -14 -7 -56 -15 -95 -19 -38 -4 -75 -12 -82 -18 -8 -6 -47 -13 -89
-16 -77 -5 -101 -15 -62 -27 36 -11 56 -33 89 -102 44 -90 65 -110 124 -118
64 -10 75 -19 75 -64 0 -36 2 -38 53 -58 64 -26 115 -41 142 -41 55 0 127 -16
132 -29 8 -20 -18 -94 -39 -112 -14 -12 -18 -31 -18 -84 0 -61 -2 -68 -15 -57
-13 11 -15 8 -15 -14 0 -32 44 -66 63 -47 28 28 115 8 187 -45 26 -19 44 -24
75 -22 38 3 40 4 37 33 -2 17 -18 55 -35 85 -17 30 -48 88 -69 129 l-38 73 0
127 c1 69 5 171 9 225 7 87 11 102 30 115 54 38 93 76 108 105 9 17 21 34 27
38 21 14 63 8 81 -12 21 -23 45 -26 45 -6 0 8 -9 31 -21 50 -19 33 -25 36 -67
36 -26 -1 -58 -7 -72 -14z"/>
<path d="M26759 11293 c-7 -16 -16 -75 -21 -133 -9 -101 -32 -200 -47 -200 -4
0 -23 -21 -43 -47 -20 -27 -54 -67 -75 -90 -36 -39 -43 -42 -98 -45 -58 -3
-60 -4 -102 -56 -30 -36 -43 -62 -43 -83 0 -17 -7 -43 -14 -57 -8 -15 -18 -58
-21 -95 -6 -56 -11 -70 -30 -83 -21 -14 -27 -14 -54 1 -17 8 -31 20 -31 25 0
6 -7 10 -15 10 -10 0 -15 -10 -15 -26 0 -15 -9 -41 -19 -58 -19 -30 -19 -32
-1 -71 25 -52 25 -86 0 -118 -11 -14 -20 -32 -20 -39 0 -30 -55 -77 -99 -84
-48 -8 -61 -28 -61 -93 0 -86 37 -144 186 -295 106 -108 108 -109 162 -115 34
-4 58 -12 63 -21 4 -8 17 -36 29 -62 16 -35 33 -54 67 -74 25 -14 56 -26 68
-26 12 0 46 18 75 41 55 44 92 52 126 26 27 -20 45 -19 95 10 24 14 52 28 62
31 10 4 21 19 24 35 3 16 10 33 17 38 18 15 117 41 155 41 37 1 67 20 87 55 6
11 17 30 24 42 12 19 12 24 -3 41 -21 23 -21 32 -1 79 28 65 81 185 120 269
14 31 32 75 40 97 8 22 18 45 23 51 5 6 14 52 21 101 7 50 17 96 23 104 14 17
99 8 133 -14 13 -8 37 -15 53 -15 25 0 32 5 37 28 3 15 12 43 19 62 8 19 19
53 25 75 16 61 44 110 60 108 8 -1 27 -5 41 -9 24 -5 30 0 60 51 19 31 44 73
56 93 46 77 63 142 63 246 0 35 6 70 13 80 11 16 15 16 47 1 19 -8 42 -19 50
-25 16 -9 55 -29 106 -53 17 -8 35 -20 38 -26 9 -15 49 -14 64 1 20 20 14 52
-23 124 -48 93 -63 104 -150 103 l-70 0 -50 -59 c-58 -68 -65 -72 -102 -61
-121 37 -111 36 -132 10 -11 -13 -20 -29 -21 -34 0 -6 -12 -27 -26 -48 -18
-26 -32 -38 -47 -37 -12 1 -27 2 -34 1 -11 -1 -86 -92 -133 -163 -31 -47 -67
-52 -75 -10 -3 15 -10 43 -15 63 -6 20 -14 75 -19 121 -4 47 -11 91 -15 97
-10 16 -117 14 -159 -4 -20 -8 -66 -15 -102 -15 -37 0 -82 -7 -103 -16 -20 -8
-65 -18 -99 -21 l-63 -6 -20 44 c-13 30 -20 66 -20 111 0 98 -18 129 -41 71z"/>
<path d="M27833 11253 c-49 -9 -13 -63 42 -63 24 0 42 8 59 27 14 15 23 30 20
35 -5 8 -81 9 -121 1z"/>
<path d="M29222 11204 c-23 -31 -42 -65 -42 -76 0 -22 24 -72 51 -107 12 -15
19 -40 19 -68 0 -29 10 -64 30 -103 17 -33 30 -73 30 -90 0 -39 -26 -90 -45
-90 -23 0 -18 -18 12 -46 l27 -25 11 22 c7 12 27 28 46 36 33 14 35 13 65 -20
23 -24 33 -47 38 -84 7 -55 49 -113 81 -113 29 0 100 38 114 61 19 32 51 153
51 194 0 46 -18 52 -78 29 -28 -10 -75 -18 -115 -18 l-68 -1 -24 60 c-14 33
-25 74 -25 90 0 17 -7 40 -15 52 -8 12 -18 43 -21 70 -4 26 -12 55 -19 63 -7
8 -15 41 -19 72 -3 31 -13 69 -20 85 -8 15 -17 36 -20 46 -8 28 -20 21 -64
-39z"/>
<path d="M27595 11200 c-27 -11 -70 -19 -95 -20 -26 0 -51 -5 -58 -12 -15 -15
-16 -119 -2 -169 11 -40 40 -72 47 -52 2 6 25 39 51 72 35 47 52 61 72 61 32
0 70 26 70 48 0 9 7 26 15 36 8 11 15 28 15 38 0 24 -47 23 -115 -2z"/>
<path d="M20365 11054 c-93 -6 -291 -13 -440 -13 -148 -1 -380 -6 -514 -11
-296 -11 -288 -8 -271 -115 13 -79 33 -108 160 -234 77 -78 77 -77 173 -80 18
-1 26 -16 47 -88 13 -41 12 -42 -34 -103 -25 -34 -46 -72 -46 -85 0 -13 15
-43 33 -67 17 -24 44 -62 60 -85 16 -26 35 -43 47 -43 10 0 22 -5 26 -11 3 -6
22 -17 40 -25 20 -9 36 -23 39 -37 2 -12 6 -410 8 -883 2 -632 6 -866 14 -876
7 -8 28 -13 50 -12 21 1 193 5 383 9 190 3 426 13 525 21 99 8 268 14 375 15
206 1 396 8 781 30 217 12 239 12 262 -4 14 -9 28 -30 32 -46 3 -16 13 -35 21
-42 28 -23 16 -65 -42 -139 -30 -39 -53 -77 -51 -83 5 -15 223 -10 251 5 10 6
29 22 41 36 19 22 23 42 29 146 7 133 17 160 67 171 48 11 103 53 110 84 3 15
7 63 8 106 2 68 0 80 -20 101 -12 13 -33 24 -45 24 -26 0 -64 32 -85 71 -8 15
-24 46 -37 69 -17 30 -21 45 -13 53 6 6 11 45 11 86 0 87 -32 169 -78 198 -15
10 -33 23 -40 30 -7 7 -17 13 -22 13 -5 0 -15 6 -22 13 -7 6 -42 32 -78 56
-36 25 -92 63 -125 85 -33 23 -63 45 -66 49 -4 5 -17 14 -30 21 -46 23 -64
149 -29 213 11 21 20 50 20 64 0 15 7 32 15 39 8 7 15 27 15 44 0 17 9 44 20
61 20 30 13 55 -15 55 -7 0 -18 7 -25 15 -19 23 -104 20 -138 -5 -16 -12 -35
-18 -43 -15 -19 7 -49 57 -49 82 -1 10 -9 36 -20 58 -11 22 -19 48 -20 58 0
33 -48 102 -110 157 -82 74 -75 67 -162 138 -85 69 -98 86 -98 129 0 16 -6 37
-14 48 -7 11 -17 40 -21 65 -4 25 -14 54 -21 65 -16 23 -19 112 -4 149 15 39
-3 74 -67 134 l-57 52 -271 -1 c-148 -1 -346 -8 -440 -15z"/>
<path d="M28026 11043 c-3 -4 -6 -43 -6 -88 0 -64 -4 -86 -16 -96 -9 -7 -20
-22 -25 -34 -5 -11 -18 -33 -29 -50 -11 -16 -27 -44 -34 -61 -8 -17 -21 -36
-29 -43 -8 -6 -18 -23 -21 -36 -7 -29 -41 -50 -77 -46 -31 3 -53 -26 -63 -84
-4 -22 -12 -46 -18 -53 -6 -7 -15 -33 -19 -59 -9 -47 -32 -83 -54 -83 -7 0
-26 7 -41 15 -16 8 -38 15 -48 15 -11 0 -27 7 -37 16 -30 27 -43 10 -63 -82
-10 -49 -25 -96 -32 -104 -7 -8 -16 -28 -20 -45 -4 -16 -12 -36 -18 -44 -6 -7
-16 -29 -23 -47 -7 -19 -19 -49 -26 -68 -7 -18 -18 -40 -24 -47 -6 -8 -14 -28
-17 -46 -4 -17 -14 -37 -22 -44 -17 -14 -19 -72 -3 -100 8 -16 6 -30 -11 -62
-58 -114 -79 -137 -126 -137 -21 0 -63 -10 -95 -21 -44 -16 -60 -28 -67 -48
-7 -17 -29 -36 -68 -56 -33 -16 -66 -35 -74 -41 -31 -24 -75 -26 -102 -4 -14
11 -31 20 -37 20 -6 0 -40 -22 -75 -50 -66 -52 -95 -61 -116 -35 -7 8 -18 15
-25 15 -6 0 -20 9 -30 20 -10 11 -24 20 -32 20 -7 0 -23 12 -36 26 -37 44 -49
55 -57 52 -21 -8 -301 -284 -326 -321 -16 -23 -35 -46 -41 -50 -7 -4 -13 -14
-13 -21 0 -7 -16 -34 -35 -59 -19 -25 -35 -49 -35 -54 -1 -17 -62 -75 -90 -85
-17 -5 -30 -15 -30 -20 0 -12 128 -2 167 13 14 5 75 14 137 19 61 5 127 14
146 19 19 5 76 12 127 16 50 3 115 13 145 21 29 7 76 14 103 14 28 0 86 9 130
20 44 11 96 20 116 20 19 0 58 6 85 14 27 8 80 17 118 21 38 4 87 13 109 21
22 8 58 14 81 14 23 0 76 9 117 20 41 11 92 20 114 20 22 0 56 5 75 11 19 5
76 16 125 24 50 8 113 18 140 24 28 5 79 15 115 20 97 16 178 30 240 42 30 6
93 17 140 25 47 7 108 18 135 23 55 11 136 26 235 42 36 5 88 15 115 20 28 5
82 14 120 19 39 6 99 16 135 24 121 27 285 56 312 56 15 0 69 11 120 25 124
33 142 58 93 135 -44 70 -103 62 -199 -26 -36 -34 -54 -44 -70 -40 -12 3 -24
6 -27 6 -4 0 -9 24 -11 54 -8 95 -58 144 -182 178 -58 16 -71 33 -62 80 10 53
37 63 125 47 39 -7 73 -10 76 -8 8 9 -25 103 -49 139 -13 19 -46 60 -72 91
-126 145 -121 137 -103 170 9 18 17 19 52 14 23 -4 61 -16 84 -26 23 -11 45
-19 49 -19 4 0 16 -8 26 -17 14 -12 21 -14 30 -5 9 9 1 16 -33 31 -24 12 -49
21 -56 21 -6 0 -29 20 -50 43 -47 54 -64 63 -132 70 -57 7 -101 29 -101 51 0
18 -56 66 -77 66 -12 0 -13 -3 -4 -14 10 -12 3 -15 -41 -21 -78 -11 -85 3 -81
146 l3 114 35 28 c49 40 48 46 -27 124 -11 12 -40 26 -64 32 -23 6 -46 15 -49
21 -3 5 -17 10 -29 10 -39 0 -76 37 -76 75 0 27 -5 34 -26 39 -32 8 -50 -5
-57 -42 -3 -16 -15 -39 -25 -52 -20 -25 -26 -24 -82 9 -8 5 -26 14 -40 20 -14
6 -45 23 -70 37 -58 33 -86 44 -94 37z"/>
<path d="M15888 10693 c-33 -5 -35 -16 -43 -243 -3 -85 -10 -198 -15 -250 -5
-52 -14 -194 -20 -315 -6 -121 -15 -240 -21 -265 -5 -25 -14 -169 -20 -320
-11 -265 -14 -318 -25 -405 -3 -22 -1 -64 3 -94 l8 -54 65 -19 c53 -15 97 -18
245 -17 258 1 1176 -17 1470 -30 138 -5 440 -13 673 -16 232 -4 431 -8 441
-10 11 -2 171 -9 357 -15 345 -13 589 -9 606 8 24 24 30 160 24 562 -7 457
-16 799 -21 816 -2 7 -27 26 -57 42 -30 18 -64 48 -77 69 -14 21 -39 56 -57
78 -17 22 -39 55 -49 74 -17 33 -17 36 1 65 9 17 32 49 51 72 34 42 43 87 21
100 -7 5 -25 7 -41 6 -19 -2 -41 8 -65 26 -20 16 -47 32 -60 36 -58 19 -229
27 -737 36 -302 5 -597 14 -655 20 -58 6 -402 15 -765 20 -363 6 -712 14 -775
19 -113 10 -409 12 -462 4z"/>
<path d="M28940 10531 c0 -6 5 -13 10 -16 6 -3 10 1 10 9 0 9 -4 16 -10 16 -5
0 -10 -4 -10 -9z"/>
<path d="M29122 10500 c0 -14 2 -19 5 -12 2 6 2 18 0 25 -3 6 -5 1 -5 -13z"/>
<path d="M24810 10352 c-25 -8 -48 -19 -51 -25 -4 -5 -4 -46 -2 -91 6 -93 -5
-116 -58 -116 -17 0 -43 -7 -58 -15 -16 -8 -54 -18 -85 -23 -80 -13 -96 -31
-94 -103 1 -49 -2 -63 -20 -79 -12 -12 -22 -25 -22 -31 0 -22 -80 -119 -99
-119 -20 0 -81 -71 -81 -94 0 -12 -6 -30 -14 -41 -7 -11 -16 -33 -20 -50 -8
-30 -33 -65 -47 -65 -7 0 -68 38 -131 81 -35 25 -78 25 -78 1 0 -10 -6 -27
-14 -38 -8 -11 -19 -37 -25 -59 -6 -22 -22 -53 -36 -70 l-24 -29 -45 32 c-24
18 -50 32 -58 32 -7 -1 -33 -28 -58 -60 -50 -66 -77 -80 -112 -56 -12 9 -32
16 -43 16 -11 0 -30 7 -42 15 -11 8 -38 17 -59 21 -34 5 -42 2 -61 -20 -20
-23 -28 -25 -70 -19 -27 3 -56 10 -65 15 -23 11 -54 -5 -63 -32 -3 -11 -10
-20 -14 -20 -5 0 -14 -13 -21 -30 -7 -16 -16 -30 -21 -30 -16 0 -10 -77 6 -90
11 -9 15 -26 13 -54 -3 -36 -6 -41 -38 -48 -19 -5 -44 -14 -55 -20 -11 -6 -33
-14 -50 -18 l-30 -6 -2 -94 c-4 -136 -7 -144 -46 -136 -18 4 -56 11 -85 16
-29 4 -58 13 -65 18 -7 5 -29 12 -50 15 -34 5 -39 3 -62 -31 -14 -20 -25 -48
-25 -62 0 -14 -6 -37 -13 -51 -8 -14 -17 -79 -21 -152 l-7 -127 28 0 c15 0 75
7 133 15 58 8 146 15 196 15 50 0 119 3 153 6 l61 7 -2 54 c-3 76 9 83 136 84
56 0 133 4 171 10 39 5 138 14 220 19 83 6 206 17 275 25 69 8 186 17 260 21
74 3 155 10 179 15 24 5 128 14 230 19 103 6 202 14 220 20 18 5 101 12 184
15 84 4 194 13 244 21 51 8 123 14 159 14 59 0 78 6 182 55 65 30 124 59 132
64 30 16 123 143 169 230 7 14 85 96 172 182 148 145 176 179 148 179 -22 0
-240 226 -294 304 l-55 82 0 79 c0 74 -2 82 -28 108 -40 41 -72 66 -92 72 -10
3 -23 19 -29 35 -5 17 -15 30 -21 30 -7 0 -31 -16 -54 -35 -37 -30 -50 -35
-95 -35 -28 0 -68 7 -88 15 -49 21 -53 20 -97 -20 -22 -19 -43 -35 -48 -35 -5
0 -26 9 -48 20 -22 11 -50 20 -62 20 -13 0 -41 9 -63 20 -22 11 -50 20 -62 20
-44 0 -109 54 -154 127 -27 46 -65 83 -82 82 -7 -1 -32 -8 -57 -17z"/>
<path d="M29585 10273 c-28 -50 -49 -128 -41 -150 9 -22 24 -14 31 16 3 16 13
35 21 42 8 6 14 20 14 31 0 11 5 28 10 39 8 14 7 19 -1 19 -7 0 -9 10 -7 25 3
14 4 25 2 25 -1 0 -14 -21 -29 -47z"/>
<path d="M9365 9451 c-3 -6 -9 -41 -14 -79 -5 -38 -14 -78 -20 -90 -6 -11 -11
-41 -11 -65 0 -24 -9 -73 -20 -107 -11 -34 -20 -81 -20 -104 0 -39 -4 -44 -72
-98 -39 -32 -80 -58 -90 -58 -12 0 -29 17 -46 45 l-27 44 -76 1 c-61 0 -78 -3
-83 -16 -3 -9 -6 -138 -6 -288 0 -258 -1 -275 -20 -299 -11 -14 -20 -34 -20
-45 0 -11 -7 -25 -16 -33 -17 -14 -15 -71 5 -144 6 -22 11 -66 11 -97 0 -33 8
-79 20 -108 11 -28 20 -57 20 -65 0 -8 7 -23 16 -32 36 -41 84 -109 84 -119 0
-16 -67 -74 -84 -74 -8 0 -16 -7 -20 -15 -3 -8 -12 -15 -19 -15 -8 0 -22 -9
-32 -20 -10 -11 -22 -20 -27 -20 -15 0 -68 -43 -68 -55 0 -6 -6 -17 -12 -23
-7 -7 -18 -45 -24 -85 -17 -107 -33 -138 -112 -223 -70 -74 -72 -78 -72 -128
0 -45 4 -57 33 -85 17 -19 42 -40 55 -49 18 -12 22 -24 22 -64 0 -64 -12 -84
-54 -92 -19 -4 -39 -13 -46 -21 -7 -8 -25 -15 -39 -15 -31 0 -68 -43 -76 -87
-6 -34 36 -87 71 -88 21 -1 254 -133 604 -342 179 -106 294 -174 470 -275 187
-108 337 -196 475 -278 179 -106 257 -148 309 -166 43 -16 176 -37 481 -79 99
-14 227 -31 285 -39 224 -32 310 -40 320 -30 9 9 20 54 40 164 5 25 9 76 9
113 1 37 7 83 15 102 8 19 17 71 21 117 3 46 12 110 20 143 7 33 16 100 20
148 3 49 11 100 16 114 5 14 14 73 19 132 6 58 14 129 19 156 6 28 10 75 11
105 0 30 7 84 15 120 9 36 20 106 25 155 5 50 15 107 21 128 5 21 14 85 19
142 4 57 10 108 14 113 3 5 10 65 15 134 6 68 17 140 24 159 8 19 17 73 21
121 3 48 13 116 21 150 8 35 15 90 15 124 0 33 7 83 15 109 8 27 17 91 21 144
4 53 11 107 16 120 5 14 13 70 18 125 6 56 17 133 25 171 8 39 15 94 15 124 0
30 7 83 16 117 8 34 14 86 12 115 l-3 54 -50 8 c-27 5 -75 15 -105 22 -30 8
-86 16 -125 19 -38 3 -88 12 -110 20 -22 8 -66 15 -97 16 -32 0 -77 6 -100 14
-24 8 -79 18 -123 22 -44 4 -97 13 -119 20 -21 8 -62 14 -90 14 -28 0 -83 9
-121 20 -38 11 -93 20 -121 20 -28 0 -70 6 -92 14 -22 8 -78 18 -124 22 -45 3
-92 11 -103 17 -11 6 -58 14 -105 18 -47 3 -107 14 -133 23 -26 9 -75 16 -108
16 -33 0 -74 6 -92 14 -18 7 -70 16 -116 20 -45 4 -101 14 -123 22 -22 8 -64
14 -92 14 -28 0 -83 9 -121 20 -73 21 -190 27 -200 11z"/>
<path d="M29455 9364 c-27 -7 -70 -14 -95 -14 -25 0 -77 -9 -115 -20 -38 -11
-91 -20 -117 -20 -26 0 -59 -5 -74 -11 -16 -5 -64 -15 -107 -20 -44 -5 -105
-16 -135 -24 -31 -8 -75 -15 -98 -15 -23 0 -61 -7 -85 -16 -24 -8 -73 -17
-109 -20 -36 -3 -85 -12 -110 -19 -25 -7 -74 -16 -110 -19 -36 -4 -87 -13
-114 -21 -27 -8 -70 -15 -96 -15 -26 0 -66 -6 -88 -14 -22 -8 -74 -18 -114
-22 -40 -4 -90 -13 -112 -20 -21 -8 -57 -14 -80 -14 -23 0 -76 -9 -117 -20
-41 -11 -95 -20 -120 -20 -26 0 -65 -7 -88 -15 -23 -8 -72 -17 -109 -21 -37
-3 -87 -12 -112 -19 -25 -7 -75 -16 -112 -19 -37 -4 -86 -13 -109 -21 -23 -8
-66 -15 -96 -15 -29 0 -70 -7 -90 -15 -19 -8 -46 -15 -60 -15 -52 0 -63 -15
-63 -86 0 -56 -4 -68 -25 -89 -13 -14 -30 -25 -38 -25 -20 0 -62 -49 -95 -110
l-29 -55 -65 -5 c-58 -4 -68 -9 -97 -40 -18 -19 -40 -45 -48 -57 -18 -27 -59
-30 -85 -6 -18 16 -21 16 -50 -2 -46 -27 -76 -65 -84 -105 -8 -45 -29 -78 -57
-91 -12 -5 -53 -27 -92 -49 -38 -22 -101 -56 -140 -75 -193 -98 -181 -87 -242
-225 -17 -38 -30 -50 -77 -74 -56 -28 -56 -28 -56 -75 0 -70 7 -75 71 -58 30
9 93 18 141 21 48 3 99 11 115 17 15 6 66 13 113 16 84 5 224 36 247 55 7 5
27 17 45 27 18 9 74 39 123 66 50 27 101 55 115 62 14 7 48 13 75 13 28 0 68
5 90 10 22 6 121 17 220 25 99 8 203 19 230 24 89 17 151 13 187 -12 103 -70
148 -110 148 -132 0 -13 7 -25 15 -29 21 -8 174 4 210 16 17 5 82 16 145 24
63 7 139 19 168 26 48 11 56 10 89 -7 21 -11 49 -31 63 -44 14 -12 61 -48 105
-77 44 -30 107 -75 140 -99 33 -24 78 -57 100 -72 22 -15 60 -44 85 -63 59
-48 133 -97 158 -104 28 -9 159 12 209 34 51 23 70 50 79 118 6 48 11 56 44
77 27 17 40 34 45 57 4 18 16 44 27 58 32 41 119 141 175 200 29 31 60 77 70
104 14 37 27 53 57 70 28 15 40 18 43 9 4 -10 11 -9 33 2 16 8 55 15 88 15 43
0 66 5 82 18 23 19 20 49 -3 35 -7 -4 -42 -8 -78 -9 -36 0 -71 -4 -78 -8 -18
-11 -120 63 -128 92 -8 32 4 41 79 57 102 21 135 38 143 74 3 17 4 35 0 40 -7
12 -207 111 -223 111 -6 0 -23 5 -37 12 -20 9 -25 18 -23 37 3 29 -1 28 143
16 l70 -7 38 51 c45 61 76 68 103 22 20 -34 63 -61 98 -61 32 0 57 27 103 110
20 36 49 80 65 98 33 39 35 52 9 83 -16 21 -30 24 -98 27 -52 3 -98 -2 -138
-13 -195 -54 -226 -60 -253 -44 -20 11 -27 23 -28 48 -1 18 -8 44 -15 57 -15
29 -4 71 24 88 15 9 23 6 45 -22 30 -35 60 -41 102 -17 14 8 19 14 12 15 -22
0 -2 20 20 20 26 0 88 46 88 66 0 7 -5 14 -11 14 -6 0 -9 -7 -5 -15 3 -8 -3
-19 -14 -25 -29 -16 -35 -12 -14 11 10 11 21 41 24 67 4 36 10 49 28 57 26 12
27 28 4 74 -21 42 -24 43 -87 25z"/>
<path d="M12006 8994 c-3 -9 -6 -30 -6 -48 0 -18 -9 -66 -20 -107 -11 -41 -20
-104 -20 -140 0 -36 -9 -99 -20 -140 -11 -41 -20 -106 -20 -145 0 -39 -6 -90
-14 -115 -8 -24 -17 -87 -20 -139 -3 -52 -12 -115 -21 -139 -8 -24 -15 -76
-15 -115 0 -39 -5 -89 -11 -111 -6 -22 -17 -101 -24 -176 -7 -75 -17 -145 -22
-155 -6 -10 -13 -57 -17 -104 -3 -47 -13 -107 -21 -134 -8 -27 -15 -81 -15
-121 0 -39 -6 -94 -14 -121 -8 -27 -17 -97 -20 -157 -4 -59 -11 -120 -17 -135
-6 -15 -15 -70 -20 -122 -6 -52 -17 -117 -24 -144 -8 -27 -15 -79 -15 -115 0
-36 -9 -102 -20 -146 -11 -44 -20 -110 -20 -146 0 -37 -7 -85 -15 -108 -9 -25
-15 -83 -16 -144 -1 -67 -7 -121 -19 -157 -10 -30 -21 -93 -24 -140 -4 -47 -9
-97 -12 -112 -9 -38 26 -56 133 -73 151 -23 217 -26 236 -13 11 8 25 49 37
108 25 118 37 147 60 153 30 8 164 -2 310 -23 74 -10 164 -22 200 -25 36 -4
104 -13 152 -21 115 -19 208 -20 219 -3 5 8 9 28 9 46 0 17 7 39 16 47 18 19
20 19 42 7 9 -5 89 -12 177 -15 88 -4 185 -13 215 -20 30 -8 123 -17 205 -20
83 -3 177 -13 210 -21 35 -8 108 -15 173 -15 62 0 143 -6 180 -14 37 -8 130
-17 207 -20 77 -4 167 -13 200 -21 33 -8 105 -15 160 -15 55 -1 127 -5 160 -9
35 -5 63 -4 66 1 3 5 9 67 12 136 3 70 11 143 17 162 6 19 15 118 20 220 4
102 13 201 18 220 6 19 13 107 16 195 4 88 11 178 17 200 6 22 15 121 19 220
5 99 14 196 20 215 6 19 15 118 20 220 4 102 13 201 18 220 6 19 13 109 16
200 4 95 12 188 21 220 9 34 15 104 15 185 1 72 6 153 11 180 17 85 34 472 21
487 -18 23 -93 37 -231 43 -89 4 -145 12 -164 21 -19 10 -79 18 -181 23 -84 5
-162 13 -174 20 -12 6 -70 11 -140 11 -92 0 -135 5 -184 20 -49 15 -91 20
-191 20 -95 0 -137 4 -165 16 -25 11 -85 19 -188 24 -83 4 -157 11 -165 16 -8
5 -86 12 -174 15 -121 5 -167 10 -190 22 -22 12 -57 17 -130 18 -55 0 -122 5
-150 10 -27 5 -113 14 -190 19 -77 6 -161 17 -187 25 -69 22 -313 21 -322 -1z"/>
<path d="M26495 8850 c-12 -4 -66 -11 -120 -15 -55 -4 -122 -13 -149 -21 -27
-8 -79 -14 -116 -14 -36 0 -93 -7 -125 -16 -33 -9 -107 -19 -165 -24 -58 -4
-121 -13 -140 -19 -19 -6 -99 -15 -177 -20 -78 -5 -146 -12 -153 -16 -6 -4
-98 -11 -203 -16 -106 -4 -208 -13 -227 -19 -19 -6 -120 -15 -225 -20 -104 -5
-208 -14 -230 -19 -22 -5 -112 -12 -200 -16 -88 -4 -178 -11 -200 -16 -22 -5
-125 -14 -230 -19 -104 -5 -208 -14 -229 -21 -22 -6 -117 -14 -210 -18 l-171
-6 -5 -62 c-3 -34 -9 -65 -13 -69 -5 -5 -68 -10 -140 -12 -73 -2 -178 -10
-233 -18 -56 -7 -162 -14 -235 -14 -74 0 -139 -4 -145 -8 -23 -15 -33 -51 -39
-147 -5 -74 -12 -107 -26 -127 -20 -29 -23 -51 -13 -109 6 -34 4 -37 -48 -72
-97 -65 -100 -69 -92 -147 l6 -69 -51 -32 c-52 -31 -52 -32 -46 -73 4 -22 15
-58 26 -79 24 -48 24 -69 -1 -92 -32 -29 -26 -48 13 -41 17 3 131 10 252 16
121 5 234 14 251 19 17 5 113 12 215 16 101 4 207 11 234 17 28 5 95 12 150
14 55 3 143 9 195 14 52 5 151 14 220 20 69 6 168 15 220 20 52 6 181 16 285
24 105 8 215 19 245 24 30 6 110 13 178 16 67 4 134 11 150 17 15 6 84 14 154
19 70 4 132 11 138 15 6 4 51 10 100 15 49 5 94 11 100 15 5 3 10 30 10 58 0
66 17 99 58 112 39 13 102 72 102 96 0 10 11 40 25 66 27 52 41 60 260 173
103 53 123 63 153 80 67 40 72 45 78 90 9 69 13 78 42 89 15 6 46 25 69 42 41
31 44 32 83 19 l41 -13 42 46 c38 43 47 48 97 53 58 6 100 33 100 65 0 21 69
93 110 114 28 15 30 18 24 58 -10 64 -24 76 -69 57z"/>
<path d="M15231 8662 c-13 -25 -31 -135 -31 -194 0 -36 4 -48 18 -52 9 -2 98
-8 197 -11 99 -4 196 -11 216 -16 20 -5 162 -14 315 -19 154 -5 304 -14 335
-19 31 -5 154 -13 274 -17 166 -5 220 -10 231 -21 18 -19 18 -136 -1 -348 -7
-88 -17 -304 -20 -480 -3 -176 -11 -350 -16 -388 -10 -76 1 -112 46 -144 14
-10 35 -26 46 -35 32 -26 85 -41 106 -30 10 6 44 13 75 17 l57 7 48 -76 c34
-53 55 -78 73 -82 14 -3 50 -12 81 -20 30 -8 82 -14 116 -14 53 0 65 -4 106
-35 38 -29 54 -35 94 -35 26 0 57 7 67 15 29 22 115 20 122 -2 3 -10 14 -36
25 -59 10 -23 19 -46 19 -52 0 -23 49 -24 93 -3 24 12 53 21 65 21 13 0 52
-23 88 -52 l66 -51 32 16 c59 31 83 32 101 3 21 -31 51 -34 60 -6 3 11 10 20
15 20 5 0 12 9 15 20 10 31 59 26 106 -12 37 -30 42 -31 72 -20 53 19 69 15
127 -38 62 -57 93 -69 118 -48 28 25 159 98 175 98 8 0 43 9 78 21 71 23 144
21 181 -6 32 -22 61 -19 93 11 37 34 57 29 190 -46 39 -22 81 -44 95 -50 14
-5 32 -14 40 -20 32 -20 101 -52 105 -48 2 2 5 269 7 593 2 460 0 599 -10 633
-7 23 -17 89 -22 147 -5 57 -16 118 -25 134 -8 17 -15 54 -15 84 0 30 -5 79
-10 108 -18 93 -30 200 -36 314 -5 119 -18 184 -37 190 -7 2 -203 6 -437 10
-234 3 -506 11 -605 16 -99 5 -529 13 -955 18 -571 7 -783 12 -805 21 -22 9
-198 14 -645 20 -410 5 -627 11 -650 19 -19 6 -85 11 -147 11 -99 0 -113 -2
-122 -18z"/>
<path d="M15189 8358 c-10 -22 -32 -223 -40 -358 -6 -96 -16 -206 -24 -245 -8
-38 -16 -142 -19 -230 -3 -98 -11 -183 -20 -220 -10 -38 -16 -104 -16 -185 -1
-69 -5 -145 -11 -170 -6 -25 -16 -139 -24 -255 -7 -115 -18 -223 -23 -240 -6
-16 -13 -102 -15 -190 -3 -88 -10 -173 -17 -190 -6 -16 -15 -118 -20 -225 -5
-107 -13 -208 -19 -225 -5 -16 -12 -82 -15 -145 -7 -152 -7 -153 -65 -146 -25
4 -120 11 -211 16 -91 5 -192 16 -225 24 -33 8 -130 17 -216 20 -85 3 -166 10
-180 15 -13 6 -104 15 -203 20 -98 6 -183 14 -190 19 -6 5 -84 12 -174 16 -89
4 -183 13 -210 21 -61 18 -317 24 -332 9 -25 -25 42 -118 204 -284 51 -52 126
-138 166 -190 41 -52 95 -121 122 -153 26 -32 48 -61 48 -65 0 -14 152 -163
207 -204 116 -85 131 -104 157 -192 14 -44 41 -153 61 -241 70 -305 69 -302
210 -436 99 -94 129 -115 201 -139 79 -27 126 -57 214 -134 41 -36 93 -75 115
-87 40 -22 41 -22 80 -3 22 10 67 45 101 79 51 50 66 74 93 145 38 97 87 199
104 217 7 7 41 17 76 22 38 6 80 21 102 36 49 32 82 32 153 -1 57 -26 103 -34
299 -54 60 -6 119 -15 132 -20 14 -5 38 -36 61 -75 31 -56 48 -74 105 -111 38
-24 69 -47 69 -51 0 -5 13 -21 28 -38 57 -62 150 -181 170 -220 12 -22 47
-114 77 -205 106 -314 115 -333 216 -439 65 -68 98 -113 124 -166 30 -63 44
-80 99 -119 99 -71 113 -92 121 -183 18 -213 36 -290 107 -458 82 -194 127
-248 216 -261 56 -8 70 -15 237 -114 196 -116 207 -121 309 -131 167 -15 204
-25 253 -66 70 -59 76 -62 100 -53 37 15 47 75 28 172 -8 45 -21 89 -28 97
-12 15 -48 132 -63 206 -3 17 -13 49 -21 72 -10 28 -14 59 -10 90 9 72 44 195
58 204 16 10 -12 55 -40 64 -27 8 -31 25 -14 68 17 41 53 58 84 39 23 -14 33
-1 58 69 10 30 22 62 26 72 6 15 -7 32 -61 83 -78 72 -79 92 -3 75 24 -6 61
-11 81 -11 44 0 77 30 138 124 22 34 61 77 86 94 51 36 64 63 64 130 0 26 5
54 10 62 8 12 14 9 36 -18 41 -52 68 -58 115 -25 37 27 39 30 33 69 -5 38 -3
42 38 76 23 19 69 50 100 67 55 31 57 32 67 12 6 -11 11 -31 11 -45 0 -15 8
-30 19 -35 21 -12 45 -1 196 89 50 29 117 66 150 83 33 16 75 40 93 54 32 24
73 94 86 146 5 20 27 41 86 80 44 28 83 59 85 68 3 9 -19 68 -50 131 -30 64
-55 120 -55 126 0 19 27 20 56 1 35 -23 87 -25 104 -4 7 9 23 15 34 13 18 -3
21 -9 18 -50 -5 -68 18 -88 106 -89 90 -2 86 -3 180 42 45 21 94 42 107 45 30
8 57 37 55 61 -4 38 2 50 60 118 34 40 62 84 66 102 3 17 1 94 -5 171 -11 123
-10 144 4 183 10 24 22 63 29 86 7 24 17 48 24 55 7 7 12 21 12 32 0 12 7 34
15 50 19 36 19 85 0 110 -8 11 -15 29 -15 41 0 11 -6 30 -14 41 -8 11 -17 37
-21 57 -4 20 -13 41 -21 48 -8 6 -14 20 -14 30 0 10 -20 36 -44 59 -41 38 -44
46 -55 117 -9 62 -17 81 -41 106 -16 17 -41 47 -54 66 l-24 36 -5 504 c-4 411
-7 505 -18 512 -8 5 -50 9 -93 9 -65 0 -83 4 -101 20 -22 21 -67 47 -180 105
-76 39 -90 46 -120 64 -11 6 -34 18 -52 26 -17 8 -34 19 -38 25 -11 17 -61 11
-89 -11 -22 -17 -35 -20 -71 -15 -24 4 -49 14 -55 21 -16 20 -116 19 -150 0
-14 -8 -36 -15 -50 -15 -14 0 -36 -7 -50 -15 -14 -8 -37 -19 -52 -26 -16 -6
-28 -15 -28 -19 0 -4 -12 -13 -27 -19 -16 -6 -42 -20 -60 -32 -38 -24 -51 -19
-121 47 -56 52 -82 62 -114 40 -32 -23 -49 -20 -86 14 -18 17 -41 30 -51 30
-10 0 -35 -21 -55 -46 -40 -52 -72 -78 -85 -70 -5 3 -12 21 -15 40 -8 40 -38
53 -70 30 -32 -22 -54 -17 -110 26 -86 67 -90 70 -99 70 -5 0 -20 -9 -34 -20
-14 -11 -32 -20 -40 -20 -7 0 -24 -7 -37 -15 -22 -15 -25 -14 -50 19 -14 19
-26 38 -26 42 0 17 -44 94 -57 98 -8 3 -31 -3 -51 -13 -20 -10 -56 -22 -80
-26 -37 -6 -48 -3 -90 24 -26 17 -53 35 -59 41 -7 6 -50 13 -95 17 -46 3 -100
12 -122 20 -21 7 -49 13 -62 13 -16 0 -32 14 -53 46 -17 25 -31 49 -31 54 0 5
-10 18 -22 30 -26 24 -72 26 -112 5 -51 -27 -73 -19 -173 61 l-95 76 6 52 c18
151 26 305 27 516 0 129 4 276 9 325 5 50 13 158 16 242 l7 152 -24 9 c-13 5
-125 12 -249 15 -124 4 -245 11 -270 16 -25 5 -146 13 -270 16 -124 4 -280 13
-347 21 -100 12 -400 20 -404 12z"/>
<path d="M21900 8309 c-174 -17 -442 -29 -657 -29 -122 0 -298 -6 -390 -14
-92 -8 -325 -17 -518 -21 -192 -3 -381 -10 -420 -15 -38 -5 -91 -9 -116 -10
-74 0 -79 -10 -68 -115 5 -49 16 -126 24 -170 8 -44 15 -99 15 -121 0 -23 8
-61 17 -85 16 -40 18 -108 21 -724 l3 -680 22 -23 c21 -23 27 -24 100 -17 63
5 83 3 103 -9 24 -16 24 -19 24 -164 0 -108 4 -153 13 -167 13 -17 26 -17 268
-7 140 7 394 14 564 16 358 6 694 24 713 38 6 6 12 22 12 37 0 14 7 35 15 45
24 32 18 50 -35 100 -27 26 -50 55 -50 64 0 17 39 104 50 112 4 3 11 16 15 30
4 14 13 32 20 40 13 17 45 145 45 183 0 13 11 41 25 61 28 42 32 78 10 96 -27
22 -18 56 22 80 20 11 48 24 62 27 30 6 65 55 76 105 4 18 14 42 22 54 9 15
15 56 17 123 1 55 5 104 9 107 4 4 24 10 44 13 35 6 38 10 44 45 5 29 18 50
54 83 37 35 46 49 41 66 -4 12 -9 37 -13 54 -3 18 -12 38 -19 44 -30 25 -6
109 31 109 5 0 22 12 37 27 25 24 28 33 28 94 0 72 1 73 70 119 38 25 61 51
57 63 -6 19 -113 20 -226 1 l-104 -17 -19 23 c-24 29 -23 42 5 72 24 27 52 65
98 132 l29 43 -20 40 c-19 41 -37 54 -68 52 -9 -1 -55 -6 -102 -10z"/>
<path d="M26965 7939 c-16 -6 -104 -14 -195 -19 -91 -4 -178 -13 -194 -19 -15
-6 -76 -14 -135 -17 -64 -4 -112 -12 -121 -20 -8 -7 -26 -18 -40 -24 -14 -6
-56 -28 -95 -49 -38 -22 -94 -52 -124 -67 -29 -16 -57 -38 -62 -49 -5 -11 -13
-27 -18 -35 -22 -35 -51 -108 -51 -128 0 -15 8 -24 25 -28 13 -3 29 -12 36
-20 6 -8 21 -14 33 -14 12 0 30 -6 41 -13 11 -7 38 -19 61 -25 32 -9 47 -22
74 -64 19 -29 40 -59 47 -66 7 -7 13 -18 13 -23 0 -10 35 -62 58 -87 6 -7 12
-19 12 -26 0 -16 140 -150 195 -188 22 -15 57 -42 77 -60 38 -34 48 -41 134
-107 28 -21 64 -51 80 -66 16 -15 49 -41 74 -58 25 -16 50 -35 55 -41 21 -25
117 -96 130 -96 16 0 25 -22 25 -61 0 -16 9 -46 20 -66 11 -21 20 -48 20 -60
0 -27 38 -88 65 -103 11 -6 38 -21 60 -34 33 -18 42 -31 51 -67 7 -24 19 -57
28 -74 9 -16 16 -39 16 -51 0 -30 34 -58 62 -51 28 7 58 55 58 91 0 24 -19 84
-42 133 -16 32 -3 53 32 53 16 0 30 -5 30 -10 0 -10 58 -50 72 -50 4 0 3 12
-2 26 -21 55 -4 78 67 89 62 9 166 63 226 117 l49 43 -11 48 c-17 72 -3 91 58
84 26 -3 52 -3 57 1 6 4 25 33 43 65 21 36 43 62 60 69 82 32 92 41 139 133 9
16 23 61 33 100 44 176 46 178 156 329 24 32 43 64 43 71 0 17 -86 84 -348
272 -29 21 -85 62 -123 91 -38 28 -72 52 -75 52 -3 0 -26 16 -50 36 l-45 37
-57 -16 c-31 -9 -94 -18 -138 -21 -45 -2 -92 -9 -104 -16 -13 -7 -62 -14 -109
-17 -47 -3 -108 -12 -134 -21 l-49 -17 -29 33 c-16 18 -29 40 -29 50 0 19 -79
102 -97 102 -6 0 -16 7 -23 15 -14 17 -69 19 -115 4z"/>
<path d="M25800 7660 c-41 -4 -100 -12 -130 -18 -30 -7 -93 -16 -140 -21 -47
-5 -103 -14 -125 -20 -22 -6 -71 -11 -110 -11 -38 0 -99 -7 -134 -15 -36 -9
-122 -19 -192 -24 -69 -4 -132 -11 -138 -15 -6 -4 -47 -11 -92 -15 -44 -5 -83
-12 -86 -15 -4 -4 1 -20 10 -35 9 -16 17 -44 17 -63 1 -18 9 -51 20 -73 11
-22 19 -55 20 -73 0 -18 6 -43 14 -55 7 -12 17 -42 20 -66 4 -24 13 -56 21
-72 8 -15 15 -42 15 -59 0 -17 7 -44 15 -59 8 -16 17 -48 21 -72 4 -24 13 -53
20 -64 8 -11 14 -32 14 -47 0 -15 9 -50 20 -78 11 -28 20 -62 20 -76 0 -14 9
-42 20 -64 11 -22 20 -53 20 -70 0 -17 6 -43 14 -58 7 -15 17 -47 21 -72 4
-25 14 -54 21 -65 8 -11 14 -35 14 -55 0 -19 9 -48 20 -65 11 -16 20 -40 20
-52 0 -12 5 -25 11 -29 6 -3 18 -21 25 -38 8 -17 33 -62 54 -101 22 -38 44
-81 50 -95 6 -14 18 -33 27 -42 24 -27 22 -92 -5 -121 -12 -13 -22 -27 -22
-32 0 -5 -7 -16 -16 -26 -23 -26 -25 -230 -3 -256 9 -10 20 -31 23 -48 4 -16
13 -37 21 -45 10 -12 11 -40 4 -125 -8 -106 -2 -154 22 -195 5 -8 26 -46 45
-85 56 -109 62 -119 81 -132 13 -10 69 -12 253 -7 129 3 251 10 270 15 19 6
141 14 270 19 129 6 264 15 300 22 63 11 400 26 434 20 9 -2 19 -16 22 -31 7
-34 49 -89 60 -78 8 8 6 198 -3 235 -10 43 11 52 121 52 55 0 107 4 115 9 10
7 12 22 7 62 -20 172 -20 163 8 211 14 25 26 59 26 76 0 18 14 54 32 83 28 46
31 59 30 121 -2 51 3 78 18 108 12 23 20 59 20 88 0 36 5 54 20 67 36 32 35
54 -3 89 -25 22 -40 50 -52 89 -9 31 -21 59 -26 62 -5 4 -9 14 -9 24 0 28 -46
83 -95 113 -49 30 -81 74 -90 123 -10 45 -47 137 -68 165 -20 27 -52 54 -207
175 -56 44 -141 111 -189 148 -47 38 -101 81 -120 95 -19 15 -53 43 -75 63
-23 20 -51 41 -63 48 -12 6 -37 35 -56 64 -142 217 -170 258 -193 276 -15 12
-33 21 -40 21 -12 0 -63 22 -126 56 -14 8 -35 14 -45 14 -11 0 -28 6 -38 14
-17 13 -18 17 -5 57 7 24 22 63 33 86 22 45 18 74 -10 71 -10 -1 -52 -4 -93
-8z"/>
<path d="M24480 7494 c-36 -7 -112 -13 -170 -14 -58 0 -159 -9 -225 -20 -67
-11 -167 -20 -226 -20 -59 0 -140 -7 -180 -15 -41 -8 -145 -18 -232 -23 l-157
-7 -4 -280 c-2 -154 -9 -372 -15 -485 -6 -113 -15 -448 -20 -745 -7 -524 -1
-818 19 -855 5 -10 12 -62 15 -116 3 -55 13 -130 21 -169 8 -38 19 -122 24
-185 12 -144 31 -238 50 -250 8 -5 26 -10 40 -10 41 1 60 40 74 148 l12 97 29
0 c22 0 33 -6 40 -25 43 -105 82 -165 125 -191 66 -40 98 -37 138 13 28 35 32
47 32 100 0 64 -9 79 -89 139 -30 22 -35 32 -39 80 -3 44 0 59 16 79 18 22 28
24 158 32 77 5 177 15 224 23 47 8 139 17 206 20 66 3 136 10 155 15 19 6 105
14 191 19 87 5 163 13 170 17 6 4 82 12 167 18 151 11 156 12 159 34 2 12 -6
38 -18 57 -21 34 -21 41 -12 140 9 90 8 112 -7 162 -10 32 -22 67 -28 78 -28
51 -35 100 -24 160 6 32 11 73 11 90 0 21 12 48 35 78 34 45 45 90 25 102 -6
4 -17 21 -25 38 -8 18 -18 39 -23 47 -90 155 -154 290 -160 334 -3 23 -11 50
-17 61 -7 11 -16 41 -20 68 -3 26 -13 59 -21 75 -7 15 -14 38 -14 50 0 13 -7
38 -14 55 -8 18 -19 55 -24 82 -6 28 -15 64 -21 80 -27 76 -43 134 -51 175 -4
25 -15 63 -24 85 -8 22 -15 50 -16 63 0 13 -6 35 -14 50 -7 15 -16 47 -20 72
-4 24 -11 49 -16 55 -5 6 -16 40 -24 75 -20 89 -36 149 -51 190 -8 19 -16 43
-19 53 -6 20 -24 20 -116 1z"/>
<path d="M22865 7360 c-33 -5 -94 -13 -135 -19 -41 -6 -131 -11 -200 -11 -69
0 -165 -7 -215 -15 -49 -7 -119 -16 -155 -19 -36 -3 -68 -5 -72 -5 -4 -1 -8
-18 -10 -38 -3 -35 -6 -38 -38 -43 l-35 -5 -3 -59 c-2 -33 -10 -68 -18 -80 -7
-11 -14 -30 -14 -41 0 -11 -6 -29 -14 -40 -7 -11 -17 -34 -20 -52 -11 -50 -60
-110 -96 -118 -31 -7 -32 -8 -25 -51 5 -36 2 -49 -14 -70 -12 -15 -21 -32 -21
-39 0 -7 -7 -18 -15 -25 -10 -9 -15 -31 -15 -72 0 -57 -35 -158 -61 -173 -5
-4 -9 -13 -9 -22 0 -9 -7 -24 -15 -33 -23 -26 -34 -74 -22 -95 6 -11 26 -33
45 -51 33 -30 35 -35 29 -78 -4 -26 -13 -60 -22 -76 -20 -40 -19 -66 6 -91 21
-21 21 -50 3 -167 -5 -30 -2 -34 30 -47 19 -8 38 -20 42 -26 3 -6 10 -77 15
-157 7 -143 7 -148 -16 -192 -33 -62 -111 -230 -119 -256 -4 -12 -18 -26 -32
-33 -14 -6 -41 -23 -60 -37 l-33 -26 -3 -116 -3 -115 -30 -17 c-27 -15 -30
-22 -33 -71 -4 -88 -13 -85 215 -66 109 9 272 19 363 22 91 2 203 9 250 15 47
6 126 10 175 8 l90 -3 3 -32 c2 -17 -6 -62 -17 -98 -12 -37 -21 -80 -21 -96 0
-34 58 -146 97 -187 7 -7 16 -24 19 -38 4 -14 20 -32 37 -41 26 -13 32 -13 41
-1 15 19 274 143 283 135 3 -4 12 -2 19 4 17 14 62 14 149 -2 131 -23 143 -17
126 67 -6 32 -11 89 -11 128 0 39 -9 107 -20 151 -11 46 -20 114 -20 161 0 44
-7 103 -15 130 -8 27 -18 96 -21 154 -3 58 -12 125 -19 150 -10 35 -11 75 -5
175 5 72 14 409 19 750 6 341 18 734 26 874 8 139 15 258 15 265 0 6 -11 24
-25 39 -26 27 -26 27 -158 26 -73 -1 -159 -5 -192 -9z"/>
<path d="M21465 5909 c-71 -3 -272 -7 -445 -8 -173 -1 -369 -6 -435 -12 -66
-5 -207 -14 -314 -18 -144 -7 -196 -12 -202 -23 -5 -7 -9 -149 -9 -314 l0
-301 38 -44 c20 -24 52 -58 69 -75 30 -29 32 -36 27 -76 -7 -53 17 -118 44
-118 25 0 42 -20 42 -50 0 -14 9 -42 20 -63 11 -20 20 -43 20 -50 0 -7 9 -30
20 -52 11 -22 20 -48 20 -58 0 -10 7 -25 15 -33 21 -21 19 -77 -5 -121 -11
-21 -20 -47 -20 -59 0 -12 -7 -27 -15 -34 -8 -7 -15 -25 -15 -40 0 -15 -10
-40 -21 -55 -20 -25 -21 -35 -16 -143 3 -65 11 -141 18 -171 11 -46 11 -55 -2
-65 -9 -6 -18 -22 -22 -36 -3 -14 -11 -44 -18 -67 -9 -30 -10 -51 -3 -70 12
-36 45 -40 157 -19 109 21 146 20 237 -5 128 -36 261 -70 357 -92 91 -20 93
-20 114 -1 17 15 19 26 14 59 l-6 41 58 27 c32 14 84 32 117 39 58 12 59 11
82 -15 18 -21 31 -27 61 -25 40 1 83 -16 83 -33 0 -6 9 -32 21 -59 16 -37 32
-56 64 -75 24 -14 49 -25 55 -25 7 0 26 -7 43 -15 18 -7 73 -30 122 -48 150
-58 154 -60 166 -89 6 -15 19 -28 29 -28 9 0 47 29 85 65 67 64 88 74 123 56
100 -53 120 -60 132 -46 7 8 15 35 17 59 5 39 1 50 -26 84 -37 47 -38 58 -10
72 15 9 40 8 100 -5 85 -17 99 -15 99 15 0 10 12 46 27 80 31 73 30 78 -47
135 l-53 40 -134 0 c-130 0 -136 1 -154 24 -25 30 -24 66 3 138 43 116 76 130
223 93 70 -18 165 -27 165 -16 0 2 -16 28 -35 57 -19 30 -35 57 -35 62 0 4
-10 21 -21 37 -20 26 -21 37 -16 117 4 48 10 101 13 117 l7 29 -74 -7 c-41 -4
-189 -11 -329 -16 -140 -5 -282 -13 -315 -19 -33 -5 -121 -13 -195 -16 -105
-5 -139 -4 -151 7 -13 10 -18 36 -22 111 -5 106 0 119 51 138 25 10 25 10 19
111 -6 112 -1 130 43 153 43 22 110 91 110 113 0 11 7 25 15 32 8 7 15 19 15
27 0 8 8 31 19 51 67 131 64 122 59 228 -5 114 -16 140 -64 160 -46 19 -50 34
-30 105 25 91 22 115 -15 128 -18 6 -32 10 -33 9 -1 -1 -59 -5 -131 -9z"/>
<path d="M27026 4941 c-4 -6 -6 -67 -5 -134 2 -67 0 -128 -5 -135 -4 -6 -26
-12 -49 -12 -41 0 -43 2 -68 53 l-26 52 -174 -1 c-96 0 -201 -6 -234 -13 -33
-6 -143 -14 -245 -16 -102 -3 -243 -12 -315 -20 -175 -20 -547 -35 -562 -23
-6 5 -20 26 -30 46 -24 47 -55 95 -68 104 -15 11 -278 -1 -365 -17 -41 -8
-133 -17 -205 -21 -71 -4 -143 -11 -160 -16 -16 -5 -100 -13 -185 -18 -85 -5
-171 -14 -190 -20 -19 -6 -97 -14 -173 -17 -133 -6 -139 -7 -158 -32 -33 -41
-15 -78 71 -143 32 -25 35 -31 37 -85 5 -144 3 -138 52 -141 24 -2 73 6 112
17 37 12 88 24 113 27 25 4 47 13 50 20 3 8 16 14 28 14 13 0 42 7 66 15 24 9
47 13 52 10 5 -3 45 3 89 15 99 25 107 25 148 -2 28 -20 32 -29 31 -61 -1 -20
1 -39 3 -42 3 -2 34 -12 68 -21 l63 -16 27 29 c19 22 43 33 89 43 34 7 65 11
68 8 2 -3 -1 -23 -9 -45 -8 -23 -10 -49 -6 -60 4 -11 38 -47 76 -79 37 -33 93
-85 124 -117 55 -57 57 -58 90 -48 32 9 131 45 209 75 19 8 51 19 70 26 89 31
125 54 130 85 7 41 48 93 87 112 38 18 99 12 213 -19 144 -39 169 -49 238 -98
72 -50 109 -92 155 -172 27 -46 165 -180 193 -186 8 -2 14 -12 14 -23 0 -17 7
-19 63 -19 40 0 70 -6 84 -15 28 -20 113 -146 113 -168 0 -9 6 -17 13 -17 9 0
10 -41 4 -192 -4 -106 -12 -201 -17 -210 -6 -10 -10 -74 -10 -142 0 -123 0
-125 26 -145 36 -28 51 -26 68 7 21 41 47 60 93 68 64 10 65 18 -25 -218 -24
-65 -25 -69 -9 -109 20 -50 77 -128 95 -129 6 0 12 -7 12 -15 0 -8 21 -37 47
-65 43 -47 50 -51 81 -45 24 4 46 0 79 -16 39 -19 49 -30 74 -87 16 -35 32
-75 35 -88 3 -13 12 -24 19 -24 7 0 15 -11 19 -24 3 -12 23 -35 44 -50 64 -44
82 -70 127 -180 48 -118 77 -163 110 -176 13 -5 61 -14 107 -20 45 -6 96 -13
111 -16 32 -7 69 -59 86 -120 20 -74 90 -246 108 -266 21 -24 61 -21 210 17
129 33 148 51 167 161 8 45 17 126 21 180 3 55 13 146 20 204 27 204 28 257 6
368 -12 57 -21 114 -21 126 0 12 -10 60 -21 107 -20 80 -60 158 -164 321 -16
26 -46 73 -66 105 -20 32 -65 104 -100 161 -113 181 -128 207 -129 220 0 7 -4
18 -10 25 -29 35 -81 123 -87 146 -3 14 -28 72 -54 128 -27 55 -49 111 -49
123 0 29 -21 67 -107 193 -40 60 -70 114 -66 120 3 5 -1 15 -9 21 -8 6 -50 66
-92 134 -43 67 -82 125 -87 128 -5 3 -9 12 -9 21 0 9 -6 21 -14 27 -7 6 -21
31 -29 56 -9 25 -37 99 -62 165 -25 66 -60 156 -76 200 -44 116 -58 128 -167
133 -61 3 -92 1 -96 -7z"/>
<path d="M6711 4874 c-24 -13 -54 -24 -65 -24 -25 0 -63 -25 -97 -61 -13 -14
-44 -32 -69 -38 -25 -7 -69 -21 -98 -33 -48 -19 -57 -27 -94 -92 -23 -39 -51
-82 -62 -94 -32 -36 -104 -69 -169 -77 -31 -4 -60 -12 -63 -17 -12 -18 7 -57
52 -110 26 -29 61 -85 79 -123 32 -70 34 -72 103 -103 51 -24 77 -43 97 -72
16 -24 40 -44 60 -50 62 -20 68 -115 10 -145 -11 -5 -50 -27 -87 -47 -54 -31
-76 -38 -120 -38 -69 0 -154 41 -183 87 -23 38 -34 39 -89 14 -23 -10 -56 -23
-73 -29 -32 -10 -33 -10 -26 16 6 25 5 26 -13 12 -48 -36 -64 -55 -64 -77 0
-26 18 -31 27 -7 4 11 11 6 29 -23 19 -32 22 -47 17 -93 -4 -47 -2 -58 16 -77
13 -14 35 -23 54 -24 18 -1 77 -4 132 -8 81 -6 111 -3 160 11 84 25 106 23
139 -11 27 -28 28 -33 21 -88 -4 -32 -8 -92 -9 -133 -2 -110 -36 -148 -156
-180 -25 -6 -70 -24 -100 -40 -50 -26 -59 -28 -102 -19 -60 13 -79 3 -114 -62
-23 -42 -30 -48 -39 -36 -9 13 -15 10 -39 -19 -23 -29 -56 -101 -56 -124 0
-11 33 -8 49 3 18 15 44 -20 36 -48 -25 -85 -14 -114 51 -135 40 -13 69 -60
60 -96 -7 -25 -24 -37 -67 -48 -23 -5 -28 -2 -33 19 -8 32 -26 32 -26 0 0 -29
44 -103 66 -112 23 -9 104 18 115 38 21 39 67 13 103 -58 20 -39 20 -43 1 -43
-12 0 -13 -4 -5 -19 5 -11 10 -30 11 -43 1 -21 2 -21 14 7 l14 30 1 -49 c0
-39 -3 -47 -15 -42 -10 3 -16 -2 -19 -17 -7 -39 -5 -66 6 -73 19 -12 80 -5
106 12 22 14 28 15 61 1 89 -38 111 -41 142 -18 37 28 71 27 107 -4 37 -31 64
-32 102 -4 28 21 30 21 55 5 21 -14 25 -23 20 -39 -4 -12 -9 -38 -12 -57 -3
-19 -13 -53 -24 -76 -10 -22 -19 -49 -20 -60 0 -12 -5 -6 -13 16 -12 33 -13
34 -19 10 -4 -14 -7 -37 -7 -53 0 -55 -38 -135 -94 -201 -31 -37 -54 -71 -51
-76 14 -23 65 -9 117 32 29 23 55 46 57 52 2 5 15 20 27 33 13 13 24 30 24 37
0 16 32 45 90 82 25 16 50 34 55 40 6 6 27 21 48 34 21 12 53 45 72 73 l35 51
-20 21 c-42 45 -13 150 65 235 39 42 55 71 55 99 0 12 9 26 21 33 11 7 46 49
78 93 73 100 159 169 221 179 24 4 49 11 55 15 5 5 24 12 41 15 39 9 58 -11
56 -59 -2 -47 21 -64 51 -38 57 50 75 56 164 48 73 -6 90 -11 136 -42 78 -53
102 -63 146 -63 32 0 43 -5 60 -28 11 -15 35 -36 54 -47 34 -18 37 -18 91 -1
30 10 61 14 68 10 13 -8 62 -7 111 2 26 5 27 8 27 67 -1 57 -2 60 -15 43 -14
-19 -15 -17 -15 19 0 21 -11 95 -25 164 -13 69 -38 198 -55 286 -16 88 -37
194 -45 235 -8 41 -26 134 -40 205 -13 72 -38 195 -54 275 -16 80 -37 183 -46
230 -27 140 -43 220 -65 320 -11 52 -27 132 -34 176 -18 106 -27 121 -89 150
-54 25 -129 31 -197 16 -47 -11 -205 4 -316 30 -74 17 -107 19 -176 13 -96 -7
-114 -2 -188 60 -46 38 -31 36 -212 35 -52 -1 -59 2 -79 30 -13 16 -25 30 -28
29 -3 0 -26 -11 -50 -25z m-911 -1068 c0 -3 -4 -8 -10 -11 -5 -3 -10 -1 -10 4
0 6 5 11 10 11 6 0 10 -2 10 -4z"/>
<path d="M22798 3503 c7 -2 22 -27 33 -54 12 -26 29 -50 38 -53 46 -13 77 -15
91 -6 13 8 12 16 -10 55 -19 35 -33 48 -60 55 -35 10 -116 13 -92 3z"/>
<path d="M8070 2520 c0 -5 5 -10 11 -10 5 0 7 5 4 10 -3 6 -8 10 -11 10 -2 0
-4 -4 -4 -10z"/>
<path d="M7415 2500 c-32 -12 -45 -34 -60 -96 -21 -90 -5 -105 58 -55 20 16
61 39 91 51 58 23 71 41 60 84 -6 25 -10 26 -68 25 -33 0 -70 -4 -81 -9z"/>
<path d="M6505 2101 c-3 -5 -2 -12 3 -15 12 -7 52 4 52 15 0 12 -47 12 -55 0z"/>
<path d="M6900 1929 c0 -5 5 -7 10 -4 6 3 10 8 10 11 0 2 -4 4 -10 4 -5 0 -10
-5 -10 -11z"/>
<path d="M6257 1493 c-33 -23 -36 -28 -24 -41 27 -26 117 20 117 60 0 17 -57
5 -93 -19z"/>
</g>
</svg>
